<svg xmlns="http://www.w3.org/2000/svg" viewBox="0 0 636 300"><defs><style>.a{fill:#b2b2b2}.b{fill:#b3d6f2}.c{fill:#005291}.d{fill:#bb9167}.e{fill:#fff}.f{fill:#967552}.g{fill:#a7c209}.h{fill:#a8825c}.i{fill:#002050}.j{fill:#001a41}.k{fill:#0078d7}.l{fill:#666}.m{fill:#1a649c}.n{fill:#1a86db}.o{fill:#b8977c}.p{fill:#997961}.q{fill:#c2c2c2}.r{fill:#409ae1}.s{fill:#505050}.t{fill:#bfc5cc}.u{fill:#106ebe}.v{fill:#004578}.w{fill:#2488d8}.x{fill:#573522}.y{fill:#8a0000}.z{fill:#414141}.aa{fill:#252829}.ab{fill:#bad80a}.ac{fill:#0054a6}.ad{fill:#939393}.ae{fill:#563f25}.af{fill:#8e562e}.ag{fill:#c8c8c8}.ah{fill:#005a93}.ai{fill:#75411d}.aj{fill:#301d19}.ak{fill:#cb8c84}.al{fill:#737373}.am{fill:#a6a6a6}.an{fill:#e6e6e6}</style></defs><title>swimlane-download-target</title><path class="a" d="M604.475 291.967H31.525a4.091 4.091 0 0 1-3.98-4 4 4 0 0 1 3.98-4h572.95a3.919 3.919 0 0 1 3.98 4 4 4 0 0 1-3.98 4z"/><path class="b" d="M451.545 109.967h-4v-4h4zm0-8h-4v-4h4zm0-9h-4v-4h4zm0-8h-4v-4h4zm0-9h-4v-4h4zm0-8h-4v-4h4zm0-9h-4v-4h4zm0-8h-4v-4h4zm0-9h-4v-4h4zm0-8h-4v-4h4z"/><path class="c" d="M147.545 118.679l-27.945 10.27a8.047 8.047 0 0 1-4.647 0l-20.51-7.01-2.331-16.288 25.63 12.1 29.8-10.239v11.168z"/><path class="d" d="M74.876 79.108l-2.331-.946v11.169l17.217 13.531-.929-18.179-13.957-5.575z"/><path class="d" d="M70.409 79.981c4.487 4.723 12.323 8.674 24.506 9.91a1.837 1.837 0 0 0 2.35-1.759l.213-10.22a1.611 1.611 0 0 1 .973-.973l2.19.605c.592-.184.986-.966 1.187-1.364l-1.756-7.3a2.3 2.3 0 0 1-.187-1.575l.614-10.982s-11.16-7.09-15.275-3.776c-4.135 3.32-4.142 5.279-4.142 5.279s-8.235-8.081-10.673 22.155z"/><path d="M96.334 68.471c.4-.8-.187-1.575-1.164-1.584-.385-.194-1.183.4-1.578 1.183a3.435 3.435 0 0 0 1.17 1.571c.983-.003 1.776-.585 1.572-1.17z"/><path class="e" d="M90.213 79.654l1.16 2.547 1.578.8 3.32.21.016-2.935z"/><path class="f" d="M91.568 81.818l-.194.385 1.578.8 3.32.21.01-.976z"/><path class="g" d="M63.965 60.534c-.21 5.3.148 13.329 6.444 19.446 0-.983.2-2.344.2-3.326l-.194.385c-4.715-5.322-6.075-11.41-6.45-16.505zM94.914 89.89c-3.757-.431-6.9-1.032-10.022-1.627 3.126.596 6.265 1.196 10.022 1.627z"/><path class="h" d="M73.025 84.967zm.472-.284c2.316.929 4.647.929 7.908.929a47.1 47.1 0 0 0 7.908-.473 47.1 47.1 0 0 1-7.908.473c-3.261.001-5.592.001-7.905-.929z"/><path class="h" d="M77.3 72.16l-6.689 4.494c0 .983-.2 2.344-.2 3.326.385.194.385.194.582.792l.385.194.4.2c1.555 1.765 3.517 2.754 6.262 4.138a44.338 44.338 0 0 0 6.857 2.958c3.126.6 6.265 1.2 10.022 1.627.782.394 1.561-.194 1.956-.976l.394-.782.023-2.949a1.852 1.852 0 0 1-2.4 1.752c-1.374-.21-2.741-.4-4.115-.611a11.972 11.972 0 0 1-3.728-1.38A18.2 18.2 0 0 1 77.3 72.16z"/><path class="i" d="M71.276 50.915s-.773-5.295 5.5-6.058c10.44-2.1 17.487-.513 22.385 2.439.385.194.98.993 1.364 1.187a5.369 5.369 0 0 1-4.733 9.388c-.782-.394-1.381-.2-2.163-.592l-3.709-1.386a2.982 2.982 0 0 0-3.149 2.354l-.45 9.635-2.153.378A.806.806 0 0 1 83 67.672c.02-1.986-.957-5.92-4.477-5.733-3.774.592-3.567 4.139-2.982 5.914.976 1.956 2.34 3.142 2.334 5.1-.2 1.361-1.193 7.248-7.468 7.028-10.586-11.226-4.637-26.919-4.637-26.919a3.993 3.993 0 0 1 5.506-2.147z"/><path class="j" d="M71.276 50.915l18.645 4.976a2.982 2.982 0 0 0-3.149 2.354l-.45 9.635-2.153.378A.806.806 0 0 1 83 67.67c.02-1.986-.957-5.92-4.477-5.733-3.774.592-3.567 4.139-2.982 5.914.976 1.956 2.34 3.142 2.334 5.1-.2 1.361-1.193 7.248-7.468 7.028-10.586-11.224-4.637-26.917-4.637-26.917a3.993 3.993 0 0 1 5.506-2.147z"/><path class="k" d="M49.192 271.008l-11.153-6.552 19.99-34.453 20.983-48.927 19.533-13.013.457 30.261-22.322 31.207-27.488 41.477z"/><path class="l" d="M51.128 268.189c-2.788.457-5.577.457-7.908-.945a6.562 6.562 0 0 1-3.718-4.175 2.211 2.211 0 0 0-3.765 0l-3.245 6.049c-.945.961-.473 2.363.929 3.292l25.614 14.89c.929.929 2.331.457 3.261-.929l1.386-2.331c.473-.473 0-.929-.457-1.859z"/><path class="c" d="M90.545 177.22v-3.252H60.363A29.855 29.855 0 0 0 71.99 197.2L82.658 239l-2.31 39.97h12.994l4.635-49.711.958-55.289z"/><path class="m" d="M65.071 180.967H61.8a26.312 26.312 0 0 0 10.288 15.889l10.713 41.971-2.32 40.14h3.25l2.34-41.067L74.884 195a29.519 29.519 0 0 1-9.813-14.033z"/><path class="k" d="M101.007 177.83l-41.462 3.718v-42.832a154.938 154.938 0 0 1 9.341-45.668L93.067 99.6c10.744 32.61 7.94 78.23 7.94 78.23z"/><path class="l" d="M93.687 274.94a8.865 8.865 0 0 1-7.337 3.718 9.539 9.539 0 0 1-5.05-1.858c-1.384-.929-2.751 0-2.751 1.859v6.506c0 1.4.917 2.8 2.286 2.8h29.429c1.368 0 2.286-1.4 2.286-2.8v-2.316a1.225 1.225 0 0 0-1.368-1.4z"/><path class="e" d="M71.638 88.873l-2.331 4.647 24.196 7.94-3.261-8.412-18.604-4.175z"/><path class="n" d="M84.545 109.368zm.121.6zm.879-.127z"/><path class="e" d="M111.209 128.949l.93 2.331-.93-2.331z"/><path class="o" d="M265.82 117.108c.134.81 7.529 22.259 9.33 25.509 1.193 2.152 8.432 6.523 9.559 3.142.974-2.921 1.751-6.308 1.062-8.453-2.023-6.3-12.059-34.583-12.059-34.583s-8.883 8.409-7.892 14.385z"/><path class="p" d="M279.996 120.895l-10.825 6.073-1.468-3.912 11.589-4.26.704 2.099z"/><path class="b" d="M599.809 54.231a18.589 18.589 0 0 0-18.479-18.738 17.591 17.591 0 0 0-5.535.794 32.344 32.344 0 0 0-63.043-5.276 22.741 22.741 0 0 0-9.931-2.1A22.031 22.031 0 0 0 503 72.967h77.541v-.259c.259 0 .527.259.786.259a18.588 18.588 0 0 0 18.482-18.736z"/><path class="q" d="M407.734 110.967s-4.189 0-4.189 4.19v46.626s0 4.184 4.189 4.184h82.628s4.183 0 4.183-4.184v-46.626s0-4.19-4.183-4.19z"/><path d="M408.6 110.968s-4.06 0-4.06 4.109v45.784s0 4.107 4.06 4.107h80.883s4.058 0 4.058-4.107v-45.785s0-4.109-4.058-4.109z"/><path class="r" d="M409.231 114.967a1.645 1.645 0 0 0-1.686 1.666v43.612a1.676 1.676 0 0 0 1.686 1.722h79.625a1.665 1.665 0 0 0 1.69-1.722v-43.612a1.639 1.639 0 0 0-1.69-1.666z"/><path d="M433.545 180.967h31v1h-31z"/><path class="s" d="M439.817 178.967a5.755 5.755 0 0 0-2.7.47l-2.037.84-1.319.54s-1.262.538.779.15h28.962c0 .388 1.857.388.179-.33l-2.342-.958a10.971 10.971 0 0 0-3.955-.712z"/><path d="M453.545 178.967v-13h-3v3.388a1.631 1.631 0 0 1-1.669 1.684c-.958 0-1.743-.785-1.331-1.684v-3.388h-3v13z"/><path d="M444.545 169.546l9 7.199v2.222h-9v-9.421z"/><path class="t" d="M502.903 216.967l80.134.481 9.334 69.519h-3.165l-8.864-66-32.511-.351 8.91 66.351h-3.402l-8.864-66-39.055-.421-12.786 66.421h-3.208l13.477-70z"/><path class="u" d="M556.833 131.681c8.144-.312 21.887 0 27.561 0s8.444.474 8.319 5.7c-.321 13.3-2.528 59.808-3.218 70.488-.367 5.674-4.238 9.968-13.155 10.1h-79.606a10.607 10.607 0 0 1 10.084-9h26.1c0 .56 12.63-57.347 14.34-65.42 1.812-8.549 4.229-11.663 9.575-11.868z"/><path class="v" d="M515.275 185.967h-142.73v12h114.763c9.366 0 12.279 2.705 13.529 9.366s9.844 79.634 9.844 79.634h4.865z"/><path class="v" d="M298.816 185.967h142.729v12H326.782c-9.366 0-12.279 2.705-13.529 9.366s-9.844 79.634-9.844 79.634h-4.865z"/><path class="w" d="M284.545 180.967h244v6h-244z"/><path class="t" d="M408.015 216.967l-80.134.481-9.336 69.519h2.836l8.59-66h33.086l-8.989 66h3.427l8.569-66h39.102l13.448 66h2.878l-13.477-70z"/><path class="u" d="M366.894 131.125c-8.1-.312-21.887 0-27.561 0s-8.512.474-9.12 5.7c-1.549 13.3-5.877 59.808-6.688 70.488-.431 5.674 2.838 9.968 11.754 10.659h79.605c0-.69 0-9-8.917-9h-26.1s-4.491-57.9-5.066-65.975c-.611-8.55-2.59-11.666-7.907-11.872z"/><path class="o" d="M235.725 80.63l16.82 1.223v14.68s-1.346 17.738-8.074 17.738-7.4-17.738-7.4-17.738z"/><path class="p" d="M250.356 84.194c.166 6.747-13.742 7.694-13.742 7.694l-.264-3.125z"/><path class="o" d="M229.137 63.278c5.9-17.248 25.63-13.9 30.2-1.183s-3.589 20.681-11.476 24.318c-6.407 3.474-13.863 1.838-17.207 1.593-4.275-.45-3.949-2.33-3.949-2.33-.058-2.452.7-9.6-.454-11.322-4.112-1.39-2.422-2.431-1.922-2.861a27.891 27.891 0 0 0 5.033-6.7c-.384-.572.163-.939-.221-1.512z"/><path class="x" d="M242.222 78.6s-1.2 6.7 3.057 7.02c5.64 0 9.752-2.77 13.053-6.5a1.42 1.42 0 0 1 1.843.274c5.751-.083 11.688-4.827 12.668-10.778s-3.092-10.775-9.193-11.216c-.922-.137-1.493.247-2.415.11a21.552 21.552 0 0 0-4.071-4.826c-1.971-1.7-5.086-2.632-7.279-3.427-4.608-.685-10.009-.081-14.01 2.606-3.686-.548-7.687 2.14-9.145 6.143a8.574 8.574 0 0 0 1.213 6.746 12.672 12.672 0 0 0 7.594.191l4-2.688-2.437 9.957c.128 1.426 1.843.274 1.843.274a34.285 34.285 0 0 1 4.512-2.255c.967-.212 1.425-.213 1.682.362s-.229 2.718-.868 4.431a15.308 15.308 0 0 1-2.047 3.576z"/><path class="y" d="M226.648 79.422a39.457 39.457 0 0 0 5.392-.663s-.882 2.048-4.8 2.048c-.961 0-.592-1.385-.592-1.385z"/><circle class="z" cx="232.264" cy="70.021" r="1.149"/><path class="p" d="M225.849 282.193c2.8-1.3 4.6-2.532 4.6-5.025s-.806-16.495-.806-16.495 8.9-.23 8.9 0-.384 25.355-.384 25.355-6.521.69-8.746-.614a12.549 12.549 0 0 1-3.564-3.221z"/><path class="aa" d="M237.545 286.967h-17v-2.013l5.133-3.234a8.762 8.762 0 0 1 3.606.992c2.071 1.014 2.992 1.643 2.992 1.255h5.269v3z"/><path class="p" d="M262.241 282.193c-2.8-1.3-4.6-2.532-4.6-5.025s.806-16.495.806-16.495-8.9-.23-8.9 0 .384 25.355.384 25.355 6.521.69 8.746-.614a12.549 12.549 0 0 0 3.564-3.221z"/><path class="aa" d="M249.545 286.967h17v-2.013l-4.425-3.234a8.762 8.762 0 0 0-3.606.992c-2.071 1.014-2.992 1.643-2.992 1.255h-5.977z"/><path class="i" d="M242.4 214.3c.122 13.366-2.25 60.666-2.25 60.666h-11.039c-2.612-17.575-6.723-56.68-6.723-56.68l-.377-58.852c23.363-5.8 24.472-3.8 24.472-3.8 6.205 17.789-4.276 38.328-4.083 58.666z"/><path class="i" d="M246.082 214.3c-.122 13.366 2.25 60.666 2.25 60.666h11.042c2.612-17.575 6.723-56.68 6.723-56.68l.377-58.852c-23.363-5.8-24.472-3.8-24.472-3.8-6.202 17.789 4.276 38.328 4.08 58.666z"/><path class="ab" d="M243.823 173.639c9.433-.95 22.9-2.008 22.9-2.008l1.282-48.86c-2.732-7.623-.461-26.181-.461-26.181-9.047-1.059-11.392-1.5-11.392-1.5-14.782 11.81-15.16 12.43-15.16 12.43-12.47-11.345-12.414-11.262-12.414-11.262l-6.787 1.382s.6 17.509-2.153 25.132l2.009 48.676z"/><path class="o" d="M250.673 93.617l10.853 1.777-1.006 2.573-33.029.547-.906-2.356 12.416-2.849 11.672.308z"/><path class="ab" d="M259.8 101.681a7.192 7.192 0 0 0 4.923 8.537 7.327 7.327 0 0 0 8.759-4.91 6.958 6.958 0 0 0-5.106-8.531 6.842 6.842 0 0 0-8.576 4.904z"/><path class="o" d="M211.6 148.751a2.266 2.266 0 0 1-1.087-.184 6.142 6.142 0 0 1-4.923-7.083c2.371-12.355 6.751-24.525 9.847-33.419.74-1.829 1.283-3.64 1.827-5.088a6.126 6.126 0 0 1 7.854-3.824 6.031 6.031 0 0 1 3.654 7.641c-.559 1.633-1.1 3.443-1.827 5.254-2.93 8.55-7.128 20.162-9.318 31.792a6.055 6.055 0 0 1-6.027 4.911z"/><path class="ab" d="M222.749 130.4l-14.6-4.18c1.827-5.8 6.57-19.984 7.853-23.789l14.226 4.91c-1.453 4.345-6.028 17.786-7.479 23.059z"/><path class="ab" d="M230.406 103.339c-.544-.546-.907-1.092-1.45-1.633a6.831 6.831 0 0 1-.921-1.633 9.4 9.4 0 0 1-.544-1.283 8.016 8.016 0 0 0-5.131-1.225 7.754 7.754 0 0 0-6.92 8.129 7.654 7.654 0 0 0 8.216 6.714 8.034 8.034 0 0 0 5.482-3.075 8.384 8.384 0 0 0 1.45-5.094 1.6 1.6 0 0 1-.182-.9z"/><path class="p" d="M209.308 126.554l11.759 3.347-.689 3.266-11.447-4.558.377-2.055z"/><path class="o" d="M254.313 97.344c-1.269-.184-27.728-.724-27.728-.724s1.15 2.867.907 2.357c3.192 6.675 10.4 12.533 17.881 11.987 7.309-.362 12.776-6.174 15.147-12.717-2.009-.179-4.02-.541-6.207-.903z"/><path class="i" d="M239.905 177.443l30.295-29.417-20.449-21.069-30.294 29.6 20.448 20.886z"/><path class="ac" d="M239.905 177.443l30.295-29.417-50.743 8.531 20.448 20.886z"/><path class="o" d="M263.6 161.464c-.309-.838-.917-.9-1.76-.795.486-.384 1.1-1.969-2.587-1.577-1.676.178-2.553.184-2.553.184 2.009-1.086 2.19-1.811 1.45-2.719a70.316 70.316 0 0 0-8.741 1.013c-5.584-1.709-25.161-13.268-34.33-18.456a5.5 5.5 0 0 0-7.657 2.191 5.441 5.441 0 0 0 2.19 7.623s.544.362 1.45.908a16.356 16.356 0 0 1 1.827.908 9.984 9.984 0 0 0 2.372 1.264 275.335 275.335 0 0 0 12.957 6.358c4.561 2.191 9.366 4.07 12.957 5.634a57.39 57.39 0 0 0 3.1 1.262l.01.008.121.039.042.015h.009c5.928 1.956 9.886 2.3 15.055 1.546 2.736-.4 3.376-2.24 1.637-2.138 2.585-.152 2.174-2.026 1.176-2 1.075-.025 1.453-.781 1.275-1.268z"/><path class="ab" d="M264.479 124.156l-5.85-18.463 14.706-4.28c.9 3.191 4.385 12.748 5.93 17.393z"/><path class="p" d="M263.6 161.464c-.309-.838-.917-.9-1.76-.795.486-.384 1.1-1.969-2.587-1.577-.688.073-1.234.116-1.647.143l-6.109 7.792a28.435 28.435 0 0 0 8.016-.153c2.736-.4 3.376-2.24 1.637-2.138 2.585-.152 2.174-2.026 1.176-2 1.074-.029 1.452-.785 1.274-1.272z"/><path class="ad" d="M156.58 279.266l-13.095.561-.566-13.86h12.154l1.507 13.299z"/><path class="ae" d="M144 273.529l-1.211.476.5 13.129s7.721.682 12.692.526 7.085.059 7.044-3.306-.082-4.4-.082-4.4a20.745 20.745 0 0 1-4.271-7.258c-.388-1.383-8.56.2-8.637.8-.546 4.241-.973 4.542-2.777 4.842-1.54.248-3.258-4.809-3.258-4.809z"/><path class="af" d="M194.727 161.778c-1.588 7.084-3.127 9.058-7.018 13.881-2.429 3-4.071 2.9-3.634 1.042-1.645 3.57-5.114 3.855-4.02 1.48-.741.7-2.231 1.666-3.037.7-.9-.807.671-2.36 1.328-2.881-1.134-.3-1.948-1.7.009-3.688a7.693 7.693 0 0 0 1.991-3.416c-2.246 1.253-3.709.806-3.687-.607 2.238-1.68 3.47-5.4 6.189-7.677a16.92 16.92 0 0 1 2.453-2.453c6.637-14.863 7.03-13.416 7.03-13.416l6.264 7.291z"/><path class="ad" d="M167.58 279.642l11.965.747.188-14.422h-11.007l-1.146 13.675z"/><path class="ae" d="M166.614 287.388c11.007.561 9.479-.561 9.479-.561l.565-1.682c3.611.561 11.022 1.682 15.182 2.243 6.26 0 7.7-.346 9.31-1.121a1.951 1.951 0 0 0 .568-1.121c0-4.688-17.461-6.93-22.015-12.178h-.769c-1.131 1.121-2.277 3.566-5.119 3.566s-5.307-3.006-6.453-3.566c-1.711 1.121-.748 13.86-.748 14.42z"/><path class="ag" d="M184.898 154.967h-46.744l-1.331 52.828 3.414 66.38 19.308-.749-.767-66.195 3.455-15.721 4.312 15.721-.564 66.195 16.85.749 3.21-66.38-1.143-52.828z"/><path class="ah" d="M196.6 95.415a8.621 8.621 0 0 0-7.629-7.643l-25.017-4.907-3.423.19-26.013 5.431 1.748 7.279 1.278 23.263v44.939h24.7v1h23.462l1.394-46.312.684-14.183a8.259 8.259 0 0 0 1.025-.051 8.453 8.453 0 0 0 7.791-9.006z"/><path class="ah" d="M205.264 129.232h.012l-8.835-35.314-16.765 4.719 11.3 32.041-5.333 26.655 10.614 3.282 9.017-27.85-.017-.008a6.336 6.336 0 0 0 .007-3.525z"/><path class="af" d="M169.545 85.038V74.967h-17v10.071c.215 3.214 2.367 6.643 8.607 6.643 6.026 0 8.393-3.428 8.393-6.643z"/><path class="ai" d="M152.76 76.267c2.949 6.307 8.166 8.56 16.785 8.56V74.69l-17.012-1.8z"/><path class="af" d="M177.665 81.669c.17-3.651.221-9.81.221-9.81a.955.955 0 0 1 .884-.892h1.988a.884.884 0 0 0 .884-.892l-1.542-6.91a6.227 6.227 0 0 1-.221-2.007L180.1 50.9l-26.953-4.236-.884 4.682-3.535-.892s-13.256 29.429 26.733 33.219a2.165 2.165 0 0 0 2.204-2.004z"/><path class="aj" d="M182.318 51.852c-.224.44-.448.88-.673.66-3.587-1.541-8.745-3.081-11.211-2.421-1.57.22-5.6.88-4.933 4.4l1.121 9.684-2.242.22a1.237 1.237 0 0 1-1.121-.66c-.224-1.761-.224-7.263-3.363-7.043-3.363.44-3.363 3.962-2.691 5.723.9 1.761 2.466 2.861 2.242 4.842 0 1.1-1.1 7.176-7.378 7.176-5.381-5.062-6.524-10.038-6.524-14.88v-2.2c4.037-22.668 37.67-21.788 36.773-5.501z"/><path d="M176.56 62.469c0 .651-.663.868-1.326.868a1.449 1.449 0 0 1-.884-1.519 1.148 1.148 0 0 1 1.547-.651c.663 0 .884.651.663 1.302z"/><path class="ak" d="M177.835 75.611c-8.506-.421-8.344-.335-8.344-.335a14.107 14.107 0 0 0 8.282 3.582z"/><path class="e" d="M177.835 75.611l-8.344-.335a18.508 18.508 0 0 0 8.282 2.388z"/><path class="a" d="M142.216 206.763l2.11-40.513-6.061-.858-1.081 42.79 3.424 66.38 2.929-.113c-.716-13.083-1.321-67.686-1.321-67.686zM170.545 274.004l1.039-64.512-8.77-23.295-.941 5.702 4.672 15.72-.612 66.196 4.612.189z"/><path class="al" d="M166.147 193.337l-38.425 6.38a3.925 3.925 0 0 1-4.51-3.206l-4.5-26.129a3.923 3.923 0 0 1 3.224-4.536l38.425-6.38a3.925 3.925 0 0 1 4.51 3.206l4.495 26.129a3.923 3.923 0 0 1-3.219 4.536z"/><path class="v" d="M187.1 118.654l-.028.945 3.906 11.075-4.961 23.62-.061 3.155 1.635.463 7.341-28.378-7.639-14.878-.193 3.998zM137.22 115.83l2.382-9.37 1.153 50.304-2.945-11.742-.59-29.192z"/><path class="af" d="M145.612 165.171l-2.353-4.287 2.173 1.037 5.147-.857c-4.733-2.1-8.249-6.9-11.071-7.894-2.681-.647-9.842 5.375-9.842 5.375 4.016 9.052 4.615 10.464 4.615 10.464l2.643 3.733a1.788 1.788 0 0 0 2.588.485c.167-.177.457-.294.445-.606a2.04 2.04 0 0 0 2.372.378 1.577 1.577 0 0 0 .583-1.091 1.923 1.923 0 0 0 2.666.654 1.629 1.629 0 0 0 .5-1.663 3.055 3.055 0 0 0 1.261-.489 1.732 1.732 0 0 0 .16-2.4c-1.863-2.442-1.887-2.839-1.887-2.839z"/><path class="al" d="M120.057 170.3c-1.79-13.423 8.29-62.367 11.4-71.258l2.47.864c-2.989 8.541-12.981 57.269-11.277 70.048z"/><path class="ah" d="M137.271 88.708a6.68 6.68 0 0 0-8.254 4.8l-9.543 33.224a18.057 18.057 0 0 0-.674 3.354 6.364 6.364 0 0 0 .312 2.45c0 .022 0 .046.009.068 4.245 12.12 8.971 23.609 10.183 26.184l11.517-4.867c-4.181-11.969-6.191-19.148-7.549-23.664 3.191-10.511 8.633-33.247 8.633-33.247a6.742 6.742 0 0 0-4.634-8.302z"/><path class="v" d="M122.308 131.755c-.38-.266 8.874-35.194 10.923-42.9a6.9 6.9 0 0 0-4.215 4.658l-9.543 33.224a18.057 18.057 0 0 0-.674 3.354 6.364 6.364 0 0 0 .312 2.45c0 .022 0 .046.009.068 4.245 12.12 8.971 23.609 10.183 26.184l2.392-1.011c-3.58-10.206-9.095-25.827-9.387-26.027z"/><path class="al" d="M160.96 164.656c-.039-.185-3.976-18.779-8.819-37.338C143 92.266 139.017 88.569 136.727 88l2.944-.736c1.7.378 4.99 1.022 15 39.4 4.858 18.619 8.806 37.264 8.846 37.451z"/><path class="am" d="M185.832 160.382l8.758 2.774.593-1.871-9.289-2.942-.062 2.039z"/><path class="an" d="M190.537 161.863l.593-1.871 4.061 1.286-.593 1.872z"/><path class="e" d="M177.9 64.967h-3.712a2.644 2.644 0 0 1-2.644-2.644v-1.711a2.644 2.644 0 0 1 2.644-2.644h3.712a2.644 2.644 0 0 1 2.644 2.644v1.712a2.644 2.644 0 0 1-2.644 2.643zm-5.355-4.667v2.328a1.336 1.336 0 0 0 1.336 1.336h4.328a1.336 1.336 0 0 0 1.336-1.336V60.3a1.336 1.336 0 0 0-1.336-1.336h-4.328a1.336 1.336 0 0 0-1.336 1.336z"/><path class="e" d="M172.88 59.811l-10.557-.329-.491-1.307 11.857.327-.809 1.309zM462.97 125.638l-11.425 13.054v-23.725h-4v23.734l-11.429-13.063-2.929 2.898 16.354 18.684 16.358-18.684-2.929-2.898z"/><path class="u" d="M480.545 155.967h-61v-33h2v31h56v-31h3v33z"/><path class="o" d="M267.949 184.679c-.972 3.049-3.849 3.5-3.162 1.088-.737.8-1.925 1.748-2.711.933a2.667 2.667 0 0 1 1.139-2.563c-.619-.33-1.572-1.63-.266-3.708a5.429 5.429 0 0 0 1.591-2.719c-1.64 1.107-2.878.448-3.212-.523 1.925-1.748 3.8-5.108 5.725-6.856a3.4 3.4 0 0 1 1.555-1.077c.944-6.157 4.25-23.834 5.348-28.9 1.4-6.435 3.627-5.594 7.161-4.662 3.561.939 5.071 2.251 4.522 5.725-1.248 7.9-6.367 21.6-8.756 27.579l-.529 1.93c-.873 6.272-2.179 8.35-5.243 12.661-2.043 2.879-3.111 2.704-3.162 1.092z"/><path class="d" d="M121.465 118.584c-4.979 3.12-7.011 4.9-7.805 6.647a13.576 13.576 0 0 0-.493 2.625c-1.35 1-3.7 2.5-3.7 2.5l4.663 7.892 9.294-6.033c1.8-1.034 5.694-3.336 5.694-3.336.841-.509 1.558-1.268 1.438-1.925a1.058 1.058 0 0 0-1.084-.788 2.257 2.257 0 0 0 .862-1.756 1.2 1.2 0 0 0-.862-1.032 2.045 2.045 0 0 0 .508-2.11 1.662 1.662 0 0 0-1.438-.725v-.473a1.547 1.547 0 0 0-2.331-.929c-1.962 1.176-5.834 3.366-5.834 3.366.38-1.178.689-2.507 1.088-3.923z"/><path class="e" d="M115.408 137.992c-1.859.929-.48.252-.48.252l-4.647-8.837 2.331-1.386c4.174 8.365 4.456 8.865 4.456 8.865-.184.145-.886.597-1.66 1.106z"/><path class="c" d="M115.857 138.244l-4.647-9.294-19.581 10.7-6.506-29.35a7.356 7.356 0 0 0-8.837-5.576c-4.19.929-6.979 5.12-5.577 8.837l8.837 36.326c1.386 5.151 7.435 7.483 11.626 4.679z"/><path class="m" d="M80.932 105.193a6.49 6.49 0 0 1 .929 2.788l7.908 35.854 22.369-12.555-.929-2.331L100.04 135l-8.412 4.647C85.122 110.3 84.545 110.3 84.545 110.3V109.37a5.325 5.325 0 0 0-3.613-4.177z"/></svg>