<svg width="529" height="451" viewBox="0 0 529 451" fill="none" xmlns="http://www.w3.org/2000/svg">
<path opacity="0.15" d="M57.7148 395.407H484.307C484.307 395.407 527.03 214.354 493.763 161.582C440.09 76.4534 120.516 28.7933 57.736 87.1753C-5.04433 145.557 57.7148 395.407 57.7148 395.407Z" fill="#C0D8FF"/>
<path d="M430.241 155.336H418.834C418.525 155.336 418.228 155.213 418.01 154.994C417.791 154.775 417.668 154.478 417.668 154.169C417.668 153.86 417.791 153.563 418.01 153.344C418.228 153.125 418.525 153.002 418.834 153.002H430.241C430.55 153.002 430.847 153.125 431.066 153.344C431.284 153.563 431.407 153.86 431.407 154.169C431.407 154.478 431.284 154.775 431.066 154.994C430.847 155.213 430.55 155.336 430.241 155.336Z" fill="#C0D8FF"/>
<path d="M425.703 148.474V159.885C425.703 160.195 425.581 160.491 425.362 160.71C425.143 160.929 424.847 161.052 424.537 161.052C424.228 161.052 423.931 160.929 423.713 160.71C423.494 160.491 423.371 160.195 423.371 159.885V148.474C423.371 148.165 423.494 147.868 423.713 147.649C423.931 147.43 424.228 147.307 424.537 147.307C424.847 147.307 425.143 147.43 425.362 147.649C425.581 147.868 425.703 148.165 425.703 148.474Z" fill="#C0D8FF"/>
<path d="M495.49 364.069H484.083C483.773 364.069 483.475 363.946 483.255 363.727C483.034 363.509 482.909 363.212 482.906 362.902C482.909 362.592 483.034 362.295 483.255 362.076C483.475 361.858 483.773 361.735 484.083 361.735H495.49C495.799 361.735 496.096 361.858 496.314 362.077C496.533 362.296 496.656 362.593 496.656 362.902C496.656 363.211 496.533 363.508 496.314 363.727C496.096 363.946 495.799 364.069 495.49 364.069Z" fill="#C0D8FF"/>
<path d="M490.952 357.196V368.608C490.952 368.761 490.922 368.913 490.864 369.054C490.805 369.196 490.719 369.324 490.611 369.433C490.502 369.541 490.374 369.627 490.232 369.685C490.091 369.744 489.939 369.774 489.786 369.774C489.476 369.774 489.178 369.652 488.958 369.433C488.737 369.215 488.612 368.918 488.609 368.608V357.196C488.612 356.886 488.737 356.589 488.958 356.371C489.178 356.152 489.476 356.03 489.786 356.03C490.095 356.03 490.392 356.153 490.611 356.371C490.829 356.59 490.952 356.887 490.952 357.196Z" fill="#C0D8FF"/>
<path d="M223.304 22.6422H211.897C211.587 22.6422 211.291 22.5193 211.072 22.3006C210.853 22.0818 210.73 21.7851 210.73 21.4757C210.73 21.3225 210.761 21.1708 210.819 21.0292C210.878 20.8877 210.964 20.7591 211.072 20.6508C211.18 20.5424 211.309 20.4565 211.45 20.3979C211.592 20.3393 211.743 20.3091 211.897 20.3091H223.304C223.457 20.3091 223.608 20.3393 223.75 20.3979C223.891 20.4565 224.02 20.5424 224.128 20.6508C224.236 20.7591 224.322 20.8877 224.381 21.0292C224.439 21.1708 224.47 21.3225 224.47 21.4757C224.47 21.7851 224.347 22.0818 224.128 22.3006C223.909 22.5193 223.613 22.6422 223.304 22.6422Z" fill="#C0D8FF"/>
<path d="M218.766 15.7701V27.1814C218.766 27.4908 218.643 27.7875 218.424 28.0063C218.206 28.225 217.909 28.348 217.6 28.348C217.29 28.348 216.994 28.225 216.775 28.0063C216.556 27.7875 216.434 27.4908 216.434 27.1814V15.7701C216.434 15.4607 216.556 15.164 216.775 14.9452C216.994 14.7264 217.29 14.6035 217.6 14.6035C217.909 14.6035 218.206 14.7264 218.424 14.9452C218.643 15.164 218.766 15.4607 218.766 15.7701Z" fill="#C0D8FF"/>
<path d="M44.823 330.153H33.4161C33.1069 330.153 32.8102 330.03 32.5916 329.811C32.3729 329.592 32.25 329.296 32.25 328.986C32.25 328.677 32.3729 328.38 32.5916 328.161C32.8102 327.943 33.1069 327.82 33.4161 327.82H44.823C45.1323 327.82 45.4289 327.943 45.6476 328.161C45.8663 328.38 45.9892 328.677 45.9892 328.986C45.9892 329.296 45.8663 329.592 45.6476 329.811C45.4289 330.03 45.1323 330.153 44.823 330.153Z" fill="#C0D8FF"/>
<path d="M40.2854 323.281V334.692C40.2854 334.845 40.2552 334.997 40.1966 335.138C40.138 335.28 40.0521 335.408 39.9438 335.517C39.8355 335.625 39.707 335.711 39.5655 335.77C39.424 335.828 39.2724 335.858 39.1193 335.858C38.81 335.858 38.5134 335.736 38.2947 335.517C38.076 335.298 37.9531 335.001 37.9531 334.692V323.281C37.9531 322.971 38.076 322.674 38.2947 322.456C38.5134 322.237 38.81 322.114 39.1193 322.114C39.4277 322.117 39.7227 322.241 39.9408 322.459C40.1589 322.677 40.2826 322.972 40.2854 323.281Z" fill="#C0D8FF"/>
<path d="M277.03 279.979H265.623C265.47 279.979 265.318 279.949 265.177 279.89C265.035 279.832 264.907 279.746 264.799 279.637C264.69 279.529 264.604 279.401 264.546 279.259C264.487 279.117 264.457 278.966 264.457 278.813C264.46 278.504 264.584 278.209 264.802 277.991C265.02 277.773 265.315 277.649 265.623 277.646H277.03C277.34 277.646 277.638 277.769 277.858 277.987C278.079 278.206 278.204 278.502 278.207 278.813C278.204 279.123 278.079 279.42 277.858 279.638C277.638 279.857 277.34 279.979 277.03 279.979Z" fill="#C0D8FF"/>
<path d="M272.503 273.075V284.487C272.5 284.797 272.375 285.094 272.155 285.312C271.934 285.531 271.637 285.653 271.326 285.653C271.173 285.653 271.022 285.623 270.88 285.564C270.739 285.506 270.61 285.42 270.502 285.311C270.393 285.203 270.308 285.075 270.249 284.933C270.19 284.791 270.16 284.64 270.16 284.487V273.075C270.16 272.922 270.19 272.77 270.249 272.629C270.308 272.487 270.393 272.359 270.502 272.25C270.61 272.142 270.739 272.056 270.88 271.997C271.022 271.939 271.173 271.909 271.326 271.909C271.637 271.909 271.934 272.031 272.155 272.25C272.375 272.468 272.5 272.765 272.503 273.075Z" fill="#C0D8FF"/>
<path d="M471.754 182.411H453.139C452.83 182.411 452.533 182.288 452.314 182.069C452.096 181.85 451.973 181.553 451.973 181.244C451.973 180.934 452.095 180.636 452.314 180.415C452.532 180.195 452.829 180.07 453.139 180.067H471.754C472.065 180.07 472.361 180.195 472.58 180.415C472.798 180.636 472.921 180.934 472.921 181.244C472.918 181.553 472.794 181.848 472.576 182.066C472.358 182.284 472.063 182.408 471.754 182.411Z" fill="#C0D8FF"/>
<path d="M492.958 186.876C492.958 187.185 492.835 187.482 492.616 187.7C492.397 187.919 492.101 188.042 491.791 188.042H461.705C461.396 188.042 461.099 187.919 460.881 187.7C460.662 187.482 460.539 187.185 460.539 186.876C460.539 186.566 460.662 186.269 460.881 186.051C461.099 185.832 461.396 185.709 461.705 185.709H491.834C492.136 185.72 492.421 185.848 492.631 186.065C492.841 186.283 492.958 186.573 492.958 186.876Z" fill="#C0D8FF"/>
<path d="M72.7578 369.774C72.7578 370.084 72.6349 370.38 72.4162 370.599C72.1975 370.818 71.9009 370.941 71.5916 370.941H41.463C41.1537 370.941 40.8571 370.818 40.6384 370.599C40.4197 370.38 40.2969 370.084 40.2969 369.774C40.2969 369.465 40.4197 369.168 40.6384 368.949C40.8571 368.731 41.1537 368.608 41.463 368.608H71.5916C71.9009 368.608 72.1975 368.731 72.4162 368.949C72.6349 369.168 72.7578 369.465 72.7578 369.774Z" fill="#C0D8FF"/>
<path d="M168.167 66.548H149.572C149.419 66.548 149.268 66.5178 149.126 66.4592C148.985 66.4006 148.856 66.3146 148.748 66.2063C148.64 66.098 148.554 65.9694 148.495 65.8279C148.436 65.6863 148.406 65.5346 148.406 65.3814C148.406 65.072 148.529 64.7753 148.748 64.5565C148.966 64.3378 149.263 64.2148 149.572 64.2148H168.167C168.476 64.2148 168.773 64.3378 168.991 64.5565C169.21 64.7753 169.333 65.072 169.333 65.3814C169.333 65.5346 169.303 65.6863 169.244 65.8279C169.186 65.9694 169.1 66.098 168.991 66.2063C168.883 66.3146 168.755 66.4006 168.613 66.4592C168.472 66.5178 168.32 66.548 168.167 66.548Z" fill="#C0D8FF"/>
<path d="M206.217 60.3654C206.214 60.6757 206.089 60.9724 205.869 61.1909C205.648 61.4094 205.351 61.5319 205.04 61.5319H175.983C175.673 61.5319 175.377 61.409 175.158 61.1903C174.939 60.9715 174.816 60.6747 174.816 60.3654C174.816 60.056 174.939 59.7592 175.158 59.5405C175.377 59.3217 175.673 59.1988 175.983 59.1988H205.03C205.184 59.1974 205.338 59.2264 205.481 59.2843C205.624 59.3422 205.755 59.4277 205.865 59.5361C205.975 59.6444 206.063 59.7734 206.124 59.9157C206.184 60.058 206.216 60.2108 206.217 60.3654Z" fill="#F9B253"/>
<path d="M189.434 71.0553C189.434 71.3646 189.311 71.6614 189.092 71.8801C188.873 72.0989 188.577 72.2218 188.267 72.2218H158.139C157.83 72.2218 157.533 72.0989 157.314 71.8801C157.096 71.6614 156.973 71.3646 156.973 71.0553C156.973 70.7459 157.096 70.4491 157.314 70.2304C157.533 70.0116 157.83 69.8887 158.139 69.8887H188.267C188.421 69.8887 188.572 69.9188 188.714 69.9775C188.855 70.0361 188.984 70.122 189.092 70.2304C189.2 70.3387 189.286 70.4673 189.345 70.6088C189.403 70.7504 189.434 70.9021 189.434 71.0553Z" fill="#F9B253"/>
<path d="M327.366 25.8769H308.772C308.462 25.8769 308.166 25.754 307.947 25.5352C307.728 25.3164 307.605 25.0197 307.605 24.7103C307.605 24.4009 307.728 24.1042 307.947 23.8854C308.166 23.6666 308.462 23.5437 308.772 23.5437H327.366C327.675 23.5437 327.972 23.6666 328.191 23.8854C328.409 24.1042 328.532 24.4009 328.532 24.7103C328.532 25.0197 328.409 25.3164 328.191 25.5352C327.972 25.754 327.675 25.8769 327.366 25.8769Z" fill="#F9B253"/>
<path d="M81.4297 377.346H62.8458C62.5365 377.346 62.2399 377.223 62.0212 377.005C61.8025 376.786 61.6797 376.489 61.6797 376.18C61.6797 375.87 61.8025 375.574 62.0212 375.355C62.2399 375.136 62.5365 375.013 62.8458 375.013H81.4297C81.739 375.013 82.0356 375.136 82.2543 375.355C82.473 375.574 82.5959 375.87 82.5959 376.18C82.5959 376.489 82.473 376.786 82.2543 377.005C82.0356 377.223 81.739 377.346 81.4297 377.346Z" fill="#C0D8FF"/>
<path d="M311.675 18.7819C311.675 19.0912 311.552 19.388 311.334 19.6068C311.115 19.8255 310.818 19.9484 310.509 19.9484H280.338C280.029 19.9484 279.732 19.8255 279.513 19.6068C279.295 19.388 279.172 19.0912 279.172 18.7819C279.172 18.4725 279.295 18.1757 279.513 17.957C279.732 17.7382 280.029 17.6153 280.338 17.6153H310.467C310.623 17.6096 310.779 17.6355 310.926 17.6916C311.072 17.7477 311.206 17.8327 311.319 17.9416C311.432 18.0505 311.521 18.181 311.582 18.3254C311.644 18.4698 311.675 18.625 311.675 18.7819Z" fill="#F9B253"/>
<path d="M311.39 29.9598C311.39 30.2692 311.267 30.5659 311.049 30.7847C310.83 31.0035 310.533 31.1264 310.224 31.1264H260.674C260.365 31.1264 260.068 31.0035 259.849 30.7847C259.631 30.5659 259.508 30.2692 259.508 29.9598C259.508 29.6504 259.631 29.3537 259.849 29.1349C260.068 28.9161 260.365 28.7932 260.674 28.7932H310.224C310.533 28.7932 310.83 28.9161 311.049 29.1349C311.267 29.3537 311.39 29.6504 311.39 29.9598Z" fill="#F9B253"/>
<g style="mix-blend-mode:multiply" opacity="0.5">
<path d="M288.705 103.603H86.2539V246.7H288.705V103.603Z" fill="#415487"/>
</g>
<path d="M272.631 87.854H70.1797V230.951H272.631V87.854Z" fill="#AEC1FF"/>
<path d="M272.631 87.854H70.1797V102.765H272.631V87.854Z" fill="#18BDF7"/>
<path d="M149.15 162.696H87.6953V165.304H149.15V162.696Z" fill="#415487"/>
<path d="M143.373 167.712H87.6953V170.321H143.373V167.712Z" fill="#415487"/>
<path d="M122.934 172.718H87.6953V175.326H122.934V172.718Z" fill="#415487"/>
<path d="M145.292 177.734H87.6953V180.343H145.292V177.734Z" fill="#415487"/>
<path d="M149.15 182.75H87.6953V185.359H149.15V182.75Z" fill="#415487"/>
<path d="M245.079 117.104H169.09V119.712H245.079V117.104Z" fill="#415487"/>
<path d="M255.129 122.12H169.09V124.729H255.129V122.12Z" fill="#415487"/>
<path d="M252.532 127.136H169.09V129.745H252.532V127.136Z" fill="#415487"/>
<path d="M249.723 132.152H169.09V134.761H249.723V132.152Z" fill="#415487"/>
<path d="M255.129 137.169H169.09V139.778H255.129V137.169Z" fill="#415487"/>
<path d="M132.083 192.783H87.6953V195.583H132.083V192.783Z" fill="#415487"/>
<path d="M149.15 197.799H87.6953V200.408H149.15V197.799Z" fill="#415487"/>
<path d="M122.287 202.815H87.6953V205.424H122.287V202.815Z" fill="#415487"/>
<path d="M149.15 207.832H87.6953V210.44H149.15V207.832Z" fill="#415487"/>
<path d="M142.005 212.848H87.6953V215.457H142.005V212.848Z" fill="#415487"/>
<path d="M255.129 147.647H169.09V150.447H255.129V147.647Z" fill="#415487"/>
<path d="M235.962 152.663H169.09V155.452H235.962V152.663Z" fill="#415487"/>
<path d="M245.694 157.679H169.09V160.288H245.694V157.679Z" fill="#415487"/>
<path d="M225.933 162.696H169.09V165.304H225.933V162.696Z" fill="#415487"/>
<path d="M245.122 167.712H169.09V170.321H245.122V167.712Z" fill="#415487"/>
<path d="M209.059 215.563H169.113V175.602H209.059V215.563ZM170.682 213.951H207.415V177.214H170.682V213.951Z" fill="#415487"/>
<path d="M170.499 175.825L169.359 176.965L207.695 215.315L208.834 214.175L170.499 175.825Z" fill="#415487"/>
<path d="M207.687 175.843L169.352 214.193L170.491 215.333L208.826 176.983L207.687 175.843Z" fill="#415487"/>
<path d="M255.934 215.563H215.988V175.602H255.934V215.563ZM217.6 213.951H254.322V177.214H217.6V213.951Z" fill="#415487"/>
<path d="M217.366 175.834L216.227 176.974L254.562 215.324L255.701 214.184L217.366 175.834Z" fill="#415487"/>
<path d="M254.562 175.834L216.227 214.184L217.366 215.324L255.701 176.974L254.562 175.834Z" fill="#415487"/>
<path d="M149.954 156.258H86.9297V116.297H149.996L149.954 156.258ZM88.4669 154.646H148.311V117.899H88.4987L88.4669 154.646Z" fill="#415487"/>
<path d="M88.1225 116.425L87.2695 117.792L148.727 156.15L149.58 154.783L88.1225 116.425Z" fill="#415487"/>
<path d="M148.726 116.422L87.2617 154.769L88.1144 156.137L149.579 117.79L148.726 116.422Z" fill="#415487"/>
<g style="mix-blend-mode:multiply" opacity="0.5">
<path d="M139.693 37.2563H60.4062V87.8541H139.693V37.2563Z" fill="#415487"/>
</g>
<path d="M130.822 28.3691H51.5352V78.9669H130.822V28.3691Z" fill="#C0D8FF"/>
<path d="M130.822 28.3691H51.5352V37.9457H130.822V28.3691Z" fill="#18BDF7"/>
<g style="mix-blend-mode:multiply" opacity="0.5">
<path d="M61.5281 28.3691H47.1953V42.7075H61.5281V28.3691Z" fill="#415487"/>
</g>
<path d="M57.7352 24.5725H43.4023V38.9108H57.7352V24.5725Z" fill="#C0D8FF"/>
<path d="M54.26 27.2366L46.0742 35.4255L46.8838 36.2354L55.0696 28.0465L54.26 27.2366Z" fill="#415487"/>
<path d="M46.876 27.2292L46.0664 28.0391L54.2522 36.228L55.0618 35.4181L46.876 27.2292Z" fill="#415487"/>
<path d="M71.6111 49.1527C74.2511 49.1527 76.4411 49.8327 78.1811 51.1927C79.9211 52.5527 81.0711 54.4027 81.6311 56.7427H77.1911C76.7311 55.6027 76.0111 54.7027 75.0311 54.0427C74.0711 53.3827 72.9111 53.0527 71.5511 53.0527C70.4311 53.0527 69.4211 53.3327 68.5211 53.8927C67.6211 54.4527 66.9211 55.2527 66.4211 56.2927C65.9211 57.3327 65.6711 58.5527 65.6711 59.9527C65.6711 61.3327 65.9211 62.5427 66.4211 63.5827C66.9211 64.6227 67.6211 65.4227 68.5211 65.9827C69.4211 66.5427 70.4311 66.8227 71.5511 66.8227C72.9111 66.8227 74.0711 66.4927 75.0311 65.8327C76.0111 65.1727 76.7311 64.2727 77.1911 63.1327H81.6311C81.0711 65.4727 79.9211 67.3227 78.1811 68.6827C76.4411 70.0427 74.2511 70.7227 71.6111 70.7227C69.5911 70.7227 67.8011 70.2727 66.2411 69.3727C64.7011 68.4527 63.5011 67.1727 62.6411 65.5327C61.8011 63.8927 61.3811 62.0327 61.3811 59.9527C61.3811 57.8527 61.8011 55.9827 62.6411 54.3427C63.5011 52.7027 64.7011 51.4327 66.2411 50.5327C67.7811 49.6127 69.5711 49.1527 71.6111 49.1527ZM99.3548 64.7527C99.3548 65.8327 99.0848 66.8327 98.5448 67.7527C98.0048 68.6527 97.2048 69.3827 96.1448 69.9427C95.0848 70.4827 93.7948 70.7527 92.2748 70.7527C90.7748 70.7527 89.4348 70.5027 88.2548 70.0027C87.0748 69.4827 86.1248 68.7427 85.4048 67.7827C84.7048 66.8227 84.3048 65.7027 84.2048 64.4227H88.7048C88.8048 65.2827 89.1448 66.0027 89.7248 66.5827C90.3248 67.1427 91.1148 67.4227 92.0948 67.4227C92.9748 67.4227 93.6448 67.1927 94.1048 66.7327C94.5848 66.2527 94.8248 65.6427 94.8248 64.9027C94.8248 64.2427 94.6348 63.7027 94.2548 63.2827C93.8748 62.8427 93.3948 62.4927 92.8148 62.2327C92.2348 61.9727 91.4348 61.6727 90.4148 61.3327C89.0948 60.8927 88.0148 60.4627 87.1748 60.0427C86.3348 59.6027 85.6148 58.9727 85.0148 58.1527C84.4348 57.3327 84.1448 56.2627 84.1448 54.9427C84.1448 53.1227 84.7948 51.6927 86.0948 50.6527C87.4148 49.5927 89.1548 49.0627 91.3148 49.0627C93.5548 49.0627 95.3348 49.6027 96.6548 50.6827C97.9948 51.7627 98.7548 53.2027 98.9348 55.0027H94.3748C94.2548 54.2427 93.9348 53.6227 93.4148 53.1427C92.8948 52.6427 92.1848 52.3927 91.2848 52.3927C90.5048 52.3927 89.8748 52.6027 89.3948 53.0227C88.9148 53.4227 88.6748 54.0127 88.6748 54.7927C88.6748 55.4127 88.8548 55.9327 89.2148 56.3527C89.5948 56.7527 90.0648 57.0827 90.6248 57.3427C91.2048 57.6027 91.9848 57.8927 92.9648 58.2127C94.3248 58.6927 95.4248 59.1427 96.2648 59.5627C97.1248 59.9827 97.8548 60.6127 98.4548 61.4527C99.0548 62.2927 99.3548 63.3927 99.3548 64.7527ZM117.021 64.7527C117.021 65.8327 116.751 66.8327 116.211 67.7527C115.671 68.6527 114.871 69.3827 113.811 69.9427C112.751 70.4827 111.461 70.7527 109.941 70.7527C108.441 70.7527 107.101 70.5027 105.921 70.0027C104.741 69.4827 103.791 68.7427 103.071 67.7827C102.371 66.8227 101.971 65.7027 101.871 64.4227H106.371C106.471 65.2827 106.811 66.0027 107.391 66.5827C107.991 67.1427 108.781 67.4227 109.761 67.4227C110.641 67.4227 111.311 67.1927 111.771 66.7327C112.251 66.2527 112.491 65.6427 112.491 64.9027C112.491 64.2427 112.301 63.7027 111.921 63.2827C111.541 62.8427 111.061 62.4927 110.481 62.2327C109.901 61.9727 109.101 61.6727 108.081 61.3327C106.761 60.8927 105.681 60.4627 104.841 60.0427C104.001 59.6027 103.281 58.9727 102.681 58.1527C102.101 57.3327 101.811 56.2627 101.811 54.9427C101.811 53.1227 102.461 51.6927 103.761 50.6527C105.081 49.5927 106.821 49.0627 108.981 49.0627C111.221 49.0627 113.001 49.6027 114.321 50.6827C115.661 51.7627 116.421 53.2027 116.601 55.0027H112.041C111.921 54.2427 111.601 53.6227 111.081 53.1427C110.561 52.6427 109.851 52.3927 108.951 52.3927C108.171 52.3927 107.541 52.6027 107.061 53.0227C106.581 53.4227 106.341 54.0127 106.341 54.7927C106.341 55.4127 106.521 55.9327 106.881 56.3527C107.261 56.7527 107.731 57.0827 108.291 57.3427C108.871 57.6027 109.651 57.8927 110.631 58.2127C111.991 58.6927 113.091 59.1427 113.931 59.5627C114.791 59.9827 115.521 60.6127 116.121 61.4527C116.721 62.2927 117.021 63.3927 117.021 64.7527Z" fill="#415487"/>
<g style="mix-blend-mode:multiply" opacity="0.5">
<path d="M433.728 12.6838H354.441V63.2816H433.728V12.6838Z" fill="#415487"/>
</g>
<path d="M424.845 3.79663H345.559V54.3944H424.845V3.79663Z" fill="#C0D8FF"/>
<path d="M424.845 3.79663H345.559V13.3732H424.845V3.79663Z" fill="#18BDF7"/>
<g style="mix-blend-mode:multiply" opacity="0.5">
<path d="M355.563 3.79663H341.23V18.135H355.563V3.79663Z" fill="#415487"/>
</g>
<path d="M351.759 0H337.426V14.3383H351.759V0Z" fill="#C0D8FF"/>
<path d="M348.287 2.67503L340.102 10.864L340.911 11.6739L349.097 3.48493L348.287 2.67503Z" fill="#415487"/>
<path d="M340.907 2.65689L340.098 3.4668L348.283 11.6558L349.093 10.8459L340.907 2.65689Z" fill="#415487"/>
<path d="M361.025 38.1102V45.9702H356.795V24.7902H364.505C367.005 24.7902 368.885 25.3902 370.145 26.5902C371.425 27.7902 372.065 29.4202 372.065 31.4802C372.065 33.5002 371.405 35.1102 370.085 36.3102C368.785 37.5102 366.925 38.1102 364.505 38.1102H361.025ZM364.055 34.7202C366.535 34.7202 367.775 33.6402 367.775 31.4802C367.775 30.4202 367.485 29.6102 366.905 29.0502C366.325 28.4902 365.375 28.2102 364.055 28.2102H361.025V34.7202H364.055ZM392.363 24.7902V45.9702H388.103V36.7602H379.043V45.9702H374.813V24.7902H379.043V33.3702H388.103V24.7902H392.363ZM400.429 38.1102V45.9702H396.199V24.7902H403.909C406.409 24.7902 408.289 25.3902 409.549 26.5902C410.829 27.7902 411.469 29.4202 411.469 31.4802C411.469 33.5002 410.809 35.1102 409.489 36.3102C408.189 37.5102 406.329 38.1102 403.909 38.1102H400.429ZM403.459 34.7202C405.939 34.7202 407.179 33.6402 407.179 31.4802C407.179 30.4202 406.889 29.6102 406.309 29.0502C405.729 28.4902 404.779 28.2102 403.459 28.2102H400.429V34.7202H403.459Z" fill="#415487"/>
<g style="mix-blend-mode:multiply" opacity="0.5">
<path d="M502.592 76.0505H407.934V136.458H502.592V76.0505Z" fill="#415487"/>
</g>
<path d="M491.994 65.4451H397.336V125.853H491.994V65.4451Z" fill="#C0D8FF"/>
<path d="M491.994 65.4451H397.336V76.8776H491.994V65.4451Z" fill="#18BDF7"/>
<g style="mix-blend-mode:multiply" opacity="0.5">
<path d="M409.27 65.4451H392.16V82.562H409.27V65.4451Z" fill="#415487"/>
</g>
<path d="M404.735 60.9167H387.625V78.0337H404.735V60.9167Z" fill="#C0D8FF"/>
<path d="M400.591 64.1055L390.816 73.8843L391.783 74.8517L401.558 65.0729L400.591 64.1055Z" fill="#415487"/>
<path d="M391.772 64.0873L390.805 65.0547L400.58 74.8335L401.547 73.8661L391.772 64.0873Z" fill="#415487"/>
<path d="M430.176 114.23L416.31 102.489C416.138 102.345 416 102.165 415.905 101.962C415.811 101.758 415.762 101.537 415.762 101.312C415.762 101.088 415.811 100.866 415.905 100.663C416 100.46 416.138 100.279 416.31 100.135L430.176 88.3951C430.312 88.2789 430.47 88.1909 430.641 88.136C430.811 88.0811 430.99 88.0604 431.169 88.0752C431.347 88.09 431.521 88.1399 431.68 88.2221C431.839 88.3043 431.98 88.4172 432.095 88.5542C432.211 88.6904 432.299 88.8483 432.354 89.0187C432.409 89.1891 432.43 89.3686 432.415 89.547C432.4 89.7255 432.35 89.8992 432.268 90.0582C432.186 90.2173 432.073 90.3585 431.936 90.4737L420.529 100.135C420.357 100.279 420.219 100.46 420.125 100.663C420.03 100.866 419.981 101.088 419.981 101.312C419.981 101.537 420.03 101.758 420.125 101.962C420.219 102.165 420.357 102.345 420.529 102.489L431.936 112.14C432.211 112.377 432.382 112.712 432.411 113.073C432.441 113.434 432.327 113.792 432.095 114.07C431.98 114.207 431.839 114.32 431.68 114.403C431.521 114.485 431.347 114.535 431.169 114.549C430.99 114.564 430.811 114.544 430.641 114.489C430.47 114.434 430.312 114.346 430.176 114.23Z" fill="#415487"/>
<path d="M457.219 114.07C457.103 113.934 457.015 113.776 456.96 113.606C456.905 113.435 456.884 113.256 456.899 113.077C456.914 112.899 456.964 112.725 457.046 112.566C457.128 112.407 457.241 112.266 457.378 112.151L468.795 102.5C468.965 102.355 469.102 102.174 469.196 101.971C469.289 101.768 469.338 101.547 469.338 101.323C469.338 101.099 469.289 100.878 469.196 100.675C469.102 100.471 468.965 100.291 468.795 100.146L457.378 90.4842C457.241 90.369 457.128 90.2278 457.046 90.0687C456.964 89.9097 456.914 89.7359 456.899 89.5575C456.884 89.3791 456.905 89.1995 456.96 89.0291C457.015 88.8587 457.103 88.7009 457.219 88.5647C457.334 88.4277 457.475 88.3148 457.634 88.2326C457.793 88.1504 457.967 88.1005 458.145 88.0857C458.324 88.0709 458.503 88.0916 458.673 88.1465C458.844 88.2014 459.002 88.2894 459.138 88.4056L473.015 100.146C473.185 100.291 473.321 100.471 473.415 100.675C473.508 100.878 473.557 101.099 473.557 101.323C473.557 101.547 473.508 101.768 473.415 101.971C473.321 102.174 473.185 102.355 473.015 102.5L459.138 114.229C459.002 114.346 458.844 114.434 458.673 114.489C458.503 114.543 458.324 114.564 458.145 114.549C457.967 114.535 457.793 114.485 457.634 114.402C457.475 114.32 457.334 114.207 457.219 114.07Z" fill="#415487"/>
<path d="M436.347 120.37C436.011 120.233 435.743 119.969 435.6 119.636C435.457 119.302 435.451 118.926 435.584 118.588L450.118 82.244C450.184 82.0771 450.281 81.9247 450.406 81.7958C450.531 81.6669 450.68 81.564 450.844 81.493C451.009 81.422 451.186 81.3843 451.365 81.3822C451.544 81.38 451.722 81.4134 451.889 81.4804C452.056 81.545 452.21 81.6421 452.34 81.7661C452.471 81.8901 452.575 82.0386 452.648 82.2031C452.721 82.3677 452.761 82.545 452.765 82.7248C452.769 82.9047 452.738 83.0837 452.673 83.2515L438.139 119.606C438.072 119.775 437.973 119.929 437.847 120.059C437.72 120.189 437.569 120.292 437.403 120.363C437.236 120.434 437.057 120.471 436.876 120.472C436.694 120.474 436.515 120.439 436.347 120.37Z" fill="#415487"/>
<path d="M358.322 202.985C370.906 186.748 464.048 191.86 484.911 213.41C505.774 234.96 452.525 324.521 453.299 401.94C453.426 414.666 345.262 412.471 335.032 400.646C318.918 381.981 316.543 256.902 358.322 202.985Z" fill="#1E3C72"/>
<path d="M213.585 380.623C213.935 391.441 144.465 394.792 139.631 386.52C134.797 378.248 146.67 366.89 156.18 363.188C171.943 357.069 213.087 365.882 213.585 380.623Z" fill="#415487"/>
<path d="M183.117 354.8C179.046 353.739 168.275 352.265 165.9 352.679C161.374 353.421 152.606 359.424 154.239 362.075C155.872 364.726 164.077 360.314 166.738 360.473C169.399 360.633 181.993 362.775 181.993 362.775L183.117 354.8Z" fill="#C0D8FF"/>
<path d="M276.023 336.686C281.525 335.339 296.939 296.386 308.155 282.334C319.371 268.282 341.019 273.913 341.559 290.394C342.492 319.028 309.512 364.493 303.056 368.512C293.748 374.282 221.67 384.42 215.066 383.36C208.461 382.299 195.984 365.712 203.404 360.134C210.825 354.556 267.595 338.733 276.023 336.686Z" fill="#F2D5B3"/>
<path d="M212.077 357.037C206.289 358.745 185.267 352.191 179.903 353.41C174.538 354.63 161.573 360.728 161.16 364.015C160.746 367.303 177.698 362.552 180.475 362.722C183.253 362.891 199.154 370.41 199.96 374.865C200.766 379.319 187.514 384.759 185.415 389.044C183.316 393.328 189.242 393.392 193.016 392.088C196.79 390.783 206.109 385.724 208.6 385.65C211.091 385.576 220.505 383.709 220.505 383.709L212.077 357.037Z" fill="#F2D5B2"/>
<path d="M333.94 236.19C320.158 241.79 308.168 259.066 301.617 271.58C295.065 284.094 287.931 302.6 288.789 304.562C289.648 306.524 308.062 323.238 338.816 323.376C344.17 323.376 356.308 282.461 357.665 268.568C359.022 254.675 357.771 226.476 333.94 236.19Z" fill="#F9B253"/>
<g style="mix-blend-mode:multiply" opacity="0.6">
<path d="M334.588 236.081C320.807 241.68 308.817 258.956 302.265 271.47C295.714 283.985 288.579 302.491 289.438 304.453C290.296 306.415 308.711 323.129 339.465 323.267C344.818 323.267 356.957 282.351 358.314 268.458C359.671 254.566 358.42 226.366 334.588 236.081Z" fill="#F9B253" fill-opacity="0.33"/>
</g>
<path d="M284.111 305.506C297.808 321.679 321.788 327.703 342.015 326.717C346.436 326.505 346.256 319.611 341.792 319.834C323.177 320.735 301.423 315.359 288.786 300.479C285.914 297.096 281.238 302.155 284.069 305.506H284.111Z" fill="#EF8762"/>
<path d="M374.224 222.478C363.623 222.478 332.646 235.628 323.339 258.122C314.031 280.616 301.829 396.266 300.843 399.172C299.857 402.078 348.909 412.121 380.426 412.121C411.943 412.121 446.069 404.803 448.698 401.187C451.327 397.571 433.856 289.429 433.273 280.701C432.69 271.972 424.792 222.478 374.224 222.478Z" fill="#F9B253"/>
<path d="M360.569 223.559C360.092 221.777 356.943 220.77 354.707 223.559C352.47 226.348 339.589 249.118 349.607 255.046C359.625 260.975 378.093 252.819 388.832 238.438C397.228 227.133 397.546 223.241 397.769 220.728C397.991 218.214 392.616 217.291 390.984 220.431C389.701 222.817 360.569 223.559 360.569 223.559Z" fill="#EF8762"/>
<path d="M317.2 281.867C313.766 293.978 311.698 306.599 309.705 318.986C307.808 330.736 305.613 342.911 305.465 354.831C305.465 355.616 306.726 355.839 306.864 355.022C308.984 342.954 309.896 330.63 311.868 318.519C313.84 306.408 316.66 294.392 318.822 282.281C318.868 282.069 318.83 281.847 318.716 281.663C318.602 281.479 318.421 281.346 318.211 281.292C318.001 281.239 317.778 281.269 317.589 281.376C317.401 281.483 317.262 281.659 317.2 281.867Z" fill="#1E3C72"/>
<path d="M319.022 276.342C318.903 276.326 318.782 276.338 318.668 276.377C318.554 276.415 318.45 276.48 318.365 276.565C318.28 276.65 318.216 276.753 318.177 276.867C318.138 276.981 318.126 277.103 318.142 277.222C318.107 277.443 318.143 277.67 318.244 277.87C318.346 278.069 318.508 278.232 318.707 278.334C318.907 278.435 319.133 278.471 319.355 278.436C319.576 278.401 319.78 278.297 319.939 278.139C320.097 277.98 320.201 277.776 320.236 277.555C320.271 277.333 320.235 277.106 320.133 276.907C320.032 276.707 319.869 276.545 319.67 276.444C319.47 276.342 319.243 276.306 319.022 276.342Z" fill="#1E3C72"/>
<path d="M357.546 346.39C364.183 345 382.862 287.414 396.771 271.092C410.68 254.771 436.388 262.311 436.388 282.026C436.388 316.313 396.474 380.931 388.587 385.481C377.243 392.024 289.423 389.723 281.515 388.259C273.606 386.796 259.369 366.412 268.475 360.039C277.582 353.665 347.401 348.511 357.546 346.39Z" fill="#FFE1BD"/>
<path d="M276.174 357.302C261.248 358.31 249.11 358.639 240.766 361.216C232.423 363.793 210.108 376.286 209.238 379.245C208.369 382.203 215.832 379.945 215.832 379.945C215.832 379.945 208.889 385.332 210.277 388.015C211.666 390.698 227.451 383.593 227.451 383.593C227.451 383.593 218.09 390.698 220.168 393.657C222.246 396.616 232.487 391.398 232.487 391.398C232.487 391.398 228.766 394.516 230.886 396.605C233.006 398.695 251.028 388.28 257.813 388.015C264.598 387.75 270.376 391.059 280.659 388.015L276.174 357.302Z" fill="#FFE1BD"/>
<path d="M396.834 226.02C405.198 228.353 436.186 241.662 443.479 260.126C450.773 278.59 436.504 327.257 434.415 328.583C432.327 329.909 396.739 328.986 373.384 309.96C368.433 305.909 396.834 226.02 396.834 226.02Z" fill="#F9B253"/>
<path d="M376.79 285.155C374.443 293.089 372.808 301.216 371.903 309.441C371.898 309.618 371.959 309.791 372.075 309.927C372.19 310.062 372.351 310.15 372.527 310.174C372.703 310.197 372.882 310.155 373.029 310.055C373.176 309.955 373.281 309.804 373.323 309.632C374.871 301.572 376.26 293.522 378.094 285.515C378.126 285.347 378.094 285.174 378.004 285.028C377.914 284.883 377.773 284.777 377.608 284.732C377.444 284.686 377.268 284.704 377.116 284.783C376.965 284.861 376.848 284.994 376.79 285.155Z" fill="#1E3C72"/>
<path d="M378.996 281.634C378.89 281.529 378.761 281.449 378.62 281.401C378.479 281.353 378.329 281.338 378.181 281.356C378.033 281.375 377.891 281.426 377.766 281.507C377.641 281.589 377.536 281.697 377.458 281.825L377.352 281.994C377.257 282.173 377.222 282.378 377.253 282.579C377.283 282.779 377.377 282.965 377.521 283.107C377.665 283.25 377.851 283.343 378.052 283.371C378.252 283.4 378.457 283.364 378.635 283.267L378.794 283.161C378.921 283.084 379.029 282.98 379.109 282.857C379.19 282.733 379.242 282.592 379.262 282.446C379.281 282.299 379.267 282.15 379.221 282.009C379.175 281.869 379.098 281.741 378.996 281.634Z" fill="#1E3C72"/>
<path d="M368.487 309.971C384.463 327.724 411.645 333.875 434.437 332.03C438.826 331.68 438.869 324.776 434.437 325.137C413.341 326.844 388.206 321.594 373.364 305.103C370.385 301.794 365.53 306.683 368.487 309.971Z" fill="#EF8762"/>
<path d="M390.603 191.425C390.603 192.358 390.55 193.186 390.603 193.896C390.603 193.981 390.603 194.066 390.603 194.14C391.112 202.624 391.664 219.763 390.603 222.308C383.479 240.146 362.319 252.904 355.365 249.51C348.411 246.117 359.054 231.301 360.242 226.889C360.408 226.209 360.525 225.518 360.592 224.821C361.143 219.519 360.242 210.26 360.242 210.26C360.242 210.26 344.467 219.253 330.887 210.26C322.788 204.894 320.858 183.991 322.162 165.813C322.247 164.753 322.332 163.692 322.438 162.632C322.745 159.365 323.159 156.269 323.668 153.32C324.834 146.522 326.466 141.04 328.343 138.356C342.941 117.485 385.844 131.643 391.112 145.144C393.847 152.154 393.572 162.399 392.671 171.912C391.96 179.537 390.847 186.748 390.603 191.425Z" fill="#FFE1BD"/>
<path d="M383.649 178.805C381.476 184.012 376.663 179.166 375.486 165.018C375.37 163.597 362.054 167.224 358.174 151.231C358.174 151.231 345.347 161.232 336.972 145.929C336.972 145.929 329.816 154.869 320.985 153.119C309.568 150.849 307.151 128.875 318.865 119.044C331.194 108.662 343.248 120.327 343.248 120.327C343.248 120.327 354.241 113.519 366.942 117.464C380.235 121.59 383.161 135.185 383.161 135.185C390.224 136.538 396.542 140.446 400.908 146.162C408.085 155.707 393.964 191.383 390.784 191.499C387.603 191.616 383.649 178.805 383.649 178.805Z" fill="#2C1E56"/>
<path d="M328.138 175.782C328.066 176.146 327.893 176.483 327.64 176.754C327.386 177.024 327.062 177.218 326.704 177.314C326.345 177.409 325.967 177.402 325.613 177.294C325.258 177.185 324.941 176.979 324.698 176.699C324.454 176.419 324.294 176.077 324.236 175.71C324.177 175.344 324.223 174.969 324.367 174.627C324.511 174.285 324.748 173.99 325.051 173.777C325.354 173.563 325.711 173.438 326.081 173.418C327.131 173.354 328.053 174.414 328.138 175.782Z" fill="#2D3244"/>
<path d="M351.769 176.896C351.866 177.473 351.736 178.065 351.406 178.547C351.076 179.03 350.571 179.366 349.999 179.484C348.939 179.547 348.027 178.487 347.942 177.119C347.848 176.83 347.821 176.524 347.863 176.223C347.906 175.923 348.017 175.636 348.188 175.385C348.359 175.134 348.585 174.926 348.849 174.776C349.113 174.627 349.408 174.54 349.711 174.522C350.014 174.505 350.317 174.557 350.597 174.675C350.876 174.793 351.125 174.973 351.324 175.203C351.523 175.432 351.666 175.704 351.743 175.997C351.821 176.291 351.829 176.598 351.769 176.896Z" fill="#2D3244"/>
<path d="M330.759 163.82C330.833 165.135 328.713 166.333 326.02 166.482C323.327 166.63 321.08 165.707 321.006 164.36C320.932 163.014 323.052 161.858 325.745 161.699C328.437 161.539 330.685 162.505 330.759 163.82Z" fill="#2D3244"/>
<path d="M355.788 166.757C355.459 168.03 353.074 168.518 350.487 167.818C347.9 167.118 346.013 165.58 346.342 164.308C346.671 163.035 349.045 162.537 351.643 163.247C354.24 163.958 356.106 165.442 355.788 166.757Z" fill="#2D3244"/>
<path d="M336.61 183.8C335.9 184.182 334.066 185.189 333.292 184.32C332.327 183.259 334.543 168.825 334.967 165.315C334.968 165.245 334.945 165.178 334.902 165.123C334.858 165.069 334.797 165.031 334.729 165.017C334.661 165.004 334.59 165.014 334.529 165.047C334.468 165.08 334.42 165.134 334.394 165.198C332.836 170.745 330.101 185.667 332.815 186.017C334.386 186.122 335.937 185.612 337.14 184.595C337.245 184.525 337.319 184.416 337.343 184.291C337.368 184.167 337.343 184.038 337.272 183.933C337.202 183.827 337.093 183.754 336.969 183.729C336.844 183.704 336.715 183.73 336.61 183.8Z" fill="#2D3244"/>
<path d="M350.762 193.812C349.278 195.72 346.691 196.346 344.264 196.399C342.048 196.399 339.08 195.816 338.051 193.599C337.964 193.405 337.896 193.203 337.85 192.995C337.844 192.928 337.844 192.86 337.85 192.793C337.756 192.454 337.731 192.1 337.775 191.751C337.82 191.401 337.935 191.065 338.111 190.761C338.288 190.456 338.524 190.19 338.805 189.978C339.086 189.767 339.406 189.613 339.748 189.527C341.168 189.209 342.409 189.728 343.808 189.644C344.857 189.547 345.852 189.132 346.66 188.456C347.07 188.14 347.551 187.929 348.061 187.842C348.571 187.754 349.095 187.792 349.587 187.953C350.079 188.114 350.525 188.393 350.885 188.765C351.245 189.137 351.508 189.592 351.653 190.089C351.653 190.174 351.706 190.259 351.727 190.344C351.84 190.957 351.812 191.588 351.645 192.189C351.478 192.79 351.176 193.345 350.762 193.812Z" fill="white"/>
<path d="M344.361 193.016C342.208 193.42 339.997 193.398 337.852 192.952C337.846 192.885 337.846 192.818 337.852 192.751C340.014 193.078 342.207 193.135 344.382 192.921C344.404 193.016 344.414 193.016 344.361 193.016Z" fill="#2D3244"/>
<path d="M351.685 190.343C350.632 191.222 349.403 191.866 348.081 192.231C348.081 192.231 347.996 192.157 348.081 192.136C349.375 191.659 350.579 190.967 351.643 190.089C351.632 190.174 351.664 190.259 351.685 190.343Z" fill="#2D3244"/>
<path d="M383.148 179.866C384.431 176.991 387.304 171.456 394.121 171.848C400.937 172.24 404.309 179.463 402.92 185.635C401.531 191.807 394.121 197.799 384.728 191.372L383.148 179.866Z" fill="#FFE1BD"/>
<path d="M397.473 183.546C395.353 182.347 391.748 183.249 389.893 185.232C390.774 182.391 392.47 179.873 394.77 177.988C395.014 177.797 394.696 177.447 394.441 177.585C390.869 179.526 388.187 183.545 388.611 187.692C388.61 187.73 388.62 187.768 388.639 187.802C388.657 187.835 388.684 187.863 388.717 187.883C388.727 187.911 388.744 187.935 388.766 187.954C388.789 187.973 388.816 187.985 388.845 187.991C388.873 187.996 388.903 187.994 388.931 187.984C388.959 187.975 388.983 187.958 389.003 187.936C389.044 187.92 389.081 187.894 389.11 187.861C389.139 187.827 389.161 187.788 389.172 187.745C390.9 185.232 394.208 183.397 397.303 184.012C397.365 184.035 397.434 184.032 397.493 184.004C397.553 183.976 397.599 183.926 397.621 183.864C397.644 183.802 397.641 183.734 397.613 183.674C397.585 183.614 397.535 183.568 397.473 183.546Z" fill="#2D3244"/>
<path d="M310.405 395.534H186.18V386.743L310.405 390.327V395.534Z" fill="#415487"/>
<path d="M242.208 348.203H83.7521C80.0336 348.201 76.4365 346.879 73.6005 344.473C70.7645 342.067 68.8735 338.733 68.2638 335.063L49.6268 222.849C49.2528 220.599 49.373 218.295 49.9791 216.096C50.5852 213.897 51.6627 211.857 53.1366 210.117C54.6106 208.377 56.4456 206.979 58.5142 206.02C60.5829 205.062 62.8354 204.565 65.1152 204.565H223.582C227.3 204.568 230.898 205.889 233.734 208.295C236.57 210.701 238.461 214.036 239.07 217.705L257.697 329.92C258.071 332.169 257.951 334.474 257.344 336.672C256.738 338.871 255.661 340.911 254.187 342.651C252.713 344.391 250.878 345.789 248.809 346.748C246.741 347.707 244.488 348.203 242.208 348.203Z" fill="#2D3244"/>
<path d="M231.911 348.203H73.4446C69.7261 348.201 66.129 346.879 63.293 344.473C60.457 342.067 58.566 338.733 57.9563 335.063L39.33 222.849C38.9559 220.599 39.0761 218.295 39.6822 216.096C40.2883 213.897 41.3658 211.857 42.8398 210.117C44.3137 208.377 46.1488 206.979 48.2174 206.02C50.286 205.062 52.5385 204.565 54.8183 204.565H213.285C217.004 204.568 220.601 205.889 223.437 208.295C226.273 210.701 228.164 214.036 228.773 217.705L247.4 329.92C247.774 332.169 247.654 334.474 247.048 336.672C246.441 338.871 245.364 340.911 243.89 342.651C242.416 344.391 240.581 345.789 238.512 346.748C236.444 347.707 234.191 348.203 231.911 348.203Z" fill="#00328D"/>
<path d="M209.322 389.956H78.4922V395.534H209.322V389.956Z" fill="#415487"/>
<path d="M168.041 389.956H104.254L116.17 298.475H179.968L168.041 389.956Z" fill="#2D3244"/>
<path d="M159.526 389.956H95.7383L107.654 298.475H171.452L159.526 389.956Z" fill="#1A4694"/>
<path d="M108.388 283.596C107.7 283.595 107.034 283.351 106.508 282.907C105.982 282.462 105.631 281.846 105.516 281.167L101.455 256.987C101.384 256.569 101.405 256.141 101.517 255.732C101.629 255.324 101.828 254.944 102.102 254.621C102.376 254.298 102.717 254.038 103.101 253.861C103.486 253.683 103.905 253.592 104.328 253.593C105.017 253.594 105.683 253.838 106.209 254.282C106.734 254.727 107.086 255.343 107.201 256.022L111.261 280.202C111.331 280.619 111.308 281.047 111.196 281.455C111.083 281.863 110.883 282.241 110.61 282.564C110.337 282.887 109.996 283.146 109.613 283.325C109.229 283.503 108.811 283.595 108.388 283.596Z" fill="#5373B3"/>
<path d="M118.269 283.596C117.581 283.595 116.915 283.351 116.389 282.907C115.863 282.462 115.511 281.846 115.396 281.167L111.315 256.987C111.244 256.569 111.265 256.141 111.376 255.732C111.488 255.324 111.688 254.944 111.962 254.621C112.235 254.298 112.576 254.038 112.961 253.861C113.345 253.683 113.764 253.592 114.188 253.593C114.876 253.594 115.542 253.838 116.068 254.282C116.594 254.727 116.945 255.343 117.061 256.022L121.121 280.202C121.19 280.618 121.168 281.043 121.057 281.45C120.945 281.856 120.747 282.233 120.476 282.556C120.205 282.878 119.868 283.138 119.487 283.318C119.106 283.497 118.69 283.592 118.269 283.596Z" fill="#5373B3"/>
<path d="M128.15 283.596C127.462 283.595 126.796 283.351 126.27 282.907C125.744 282.462 125.392 281.846 125.277 281.167L121.217 256.987C121.146 256.569 121.167 256.141 121.279 255.732C121.39 255.324 121.59 254.944 121.864 254.621C122.138 254.298 122.479 254.038 122.863 253.861C123.248 253.683 123.666 253.592 124.09 253.593C124.778 253.594 125.444 253.838 125.97 254.282C126.496 254.727 126.848 255.343 126.963 256.022L131.023 280.202C131.092 280.619 131.07 281.047 130.957 281.455C130.845 281.863 130.645 282.241 130.372 282.564C130.098 282.887 129.758 283.146 129.375 283.325C128.991 283.503 128.573 283.595 128.15 283.596Z" fill="#5373B3"/>
<path d="M138.029 283.596C137.341 283.595 136.675 283.351 136.149 282.907C135.623 282.462 135.271 281.846 135.156 281.167L131.096 256.987C131.025 256.569 131.046 256.141 131.158 255.732C131.269 255.324 131.469 254.944 131.743 254.621C132.016 254.298 132.358 254.038 132.742 253.861C133.127 253.683 133.545 253.592 133.969 253.593C134.657 253.594 135.323 253.838 135.849 254.282C136.375 254.727 136.727 255.343 136.842 256.022L140.902 280.202C140.971 280.619 140.949 281.047 140.836 281.455C140.724 281.863 140.524 282.241 140.251 282.564C139.977 282.887 139.637 283.146 139.253 283.325C138.87 283.503 138.452 283.595 138.029 283.596Z" fill="#5373B3"/>
<path d="M147.91 283.596C147.222 283.595 146.556 283.351 146.03 282.907C145.504 282.462 145.152 281.846 145.037 281.167L140.998 256.987C140.927 256.569 140.948 256.141 141.06 255.732C141.172 255.324 141.371 254.944 141.645 254.621C141.919 254.298 142.26 254.038 142.644 253.861C143.029 253.683 143.448 253.592 143.871 253.593C144.56 253.594 145.226 253.838 145.752 254.282C146.277 254.727 146.629 255.343 146.744 256.022L150.804 280.202C150.874 280.621 150.851 281.05 150.737 281.46C150.624 281.869 150.422 282.249 150.146 282.572C149.871 282.895 149.528 283.154 149.141 283.331C148.755 283.508 148.335 283.598 147.91 283.596Z" fill="#5373B3"/>
<path d="M157.791 283.596C157.102 283.595 156.436 283.351 155.91 282.907C155.385 282.462 155.033 281.846 154.918 281.167L150.858 256.987C150.787 256.569 150.808 256.141 150.919 255.732C151.031 255.324 151.231 254.944 151.504 254.621C151.778 254.298 152.119 254.038 152.504 253.861C152.888 253.683 153.307 253.592 153.731 253.593C154.419 253.594 155.085 253.838 155.611 254.282C156.137 254.727 156.488 255.343 156.603 256.022L160.664 280.202C160.733 280.619 160.711 281.047 160.598 281.455C160.486 281.863 160.286 282.241 160.012 282.564C159.739 282.887 159.399 283.146 159.015 283.325C158.632 283.503 158.214 283.595 157.791 283.596Z" fill="#5373B3"/>
<path d="M167.67 283.596C166.981 283.595 166.315 283.351 165.789 282.907C165.264 282.462 164.912 281.846 164.797 281.167L160.737 256.987C160.665 256.569 160.686 256.141 160.798 255.732C160.91 255.324 161.11 254.944 161.383 254.621C161.657 254.298 161.998 254.038 162.383 253.861C162.767 253.683 163.186 253.592 163.609 253.593C164.298 253.594 164.964 253.838 165.49 254.282C166.016 254.727 166.367 255.343 166.482 256.022L170.543 280.202C170.612 280.619 170.589 281.047 170.477 281.455C170.365 281.863 170.165 282.241 169.891 282.564C169.618 282.887 169.278 283.146 168.894 283.325C168.51 283.503 168.093 283.595 167.67 283.596Z" fill="#5373B3"/>
<path d="M177.549 283.596C176.86 283.595 176.194 283.351 175.668 282.907C175.142 282.462 174.791 281.846 174.676 281.167L170.615 256.987C170.544 256.569 170.565 256.141 170.677 255.732C170.789 255.324 170.989 254.944 171.262 254.621C171.536 254.298 171.877 254.038 172.262 253.861C172.646 253.683 173.065 253.592 173.488 253.593C174.177 253.594 174.843 253.838 175.369 254.282C175.895 254.727 176.246 255.343 176.361 256.022L180.422 280.202C180.491 280.619 180.468 281.047 180.356 281.455C180.243 281.863 180.044 282.241 179.77 282.564C179.497 282.887 179.157 283.146 178.773 283.325C178.389 283.503 177.972 283.595 177.549 283.596Z" fill="#5373B3"/>
<path d="M491.632 395.534H47.4264C42.8374 395.534 39.1172 399.255 39.1172 403.844C39.1172 408.433 42.8374 412.153 47.4264 412.153H491.632C496.221 412.153 499.941 408.433 499.941 403.844C499.941 399.255 496.221 395.534 491.632 395.534Z" fill="#548AE7"/>
<path d="M338.083 369.636H468.16V343.855H338.083V369.636Z" fill="#C0D8FF"/>
<path d="M338.083 369.636H444.031V343.855H338.083V369.636Z" fill="#415487"/>
<path d="M365.562 361.11H429.773V352.382H365.562V361.11Z" fill="#C0D8FF"/>
<path d="M346.66 356.74C346.658 355.726 346.957 354.735 347.519 353.891C348.081 353.047 348.88 352.388 349.816 351.999C350.752 351.61 351.783 351.508 352.777 351.705C353.771 351.903 354.684 352.391 355.401 353.108C356.118 353.825 356.606 354.738 356.803 355.733C357 356.728 356.898 357.759 356.509 358.695C356.12 359.631 355.462 360.431 354.619 360.993C353.775 361.555 352.784 361.854 351.77 361.852C350.415 361.852 349.115 361.314 348.157 360.355C347.199 359.396 346.66 358.096 346.66 356.74Z" fill="#C0D8FF"/>
<path d="M481.827 369.626H351.75V395.407H481.827V369.626Z" fill="#5373B3"/>
<path d="M481.823 369.626H375.875V395.407H481.823V369.626Z" fill="#2D3244"/>
<path d="M454.348 378.152H390.137V386.88H454.348V378.152Z" fill="#C0D8FF"/>
<path d="M473.272 382.522C473.272 383.535 472.971 384.526 472.408 385.369C471.845 386.211 471.045 386.868 470.109 387.255C469.172 387.643 468.142 387.743 467.149 387.545C466.155 387.346 465.243 386.858 464.527 386.14C463.812 385.423 463.325 384.509 463.128 383.515C462.932 382.52 463.035 381.49 463.424 380.554C463.813 379.618 464.471 378.819 465.315 378.258C466.158 377.696 467.149 377.397 468.162 377.399C468.834 377.399 469.499 377.532 470.12 377.79C470.741 378.047 471.304 378.425 471.779 378.9C472.254 379.376 472.63 379.941 472.886 380.562C473.142 381.184 473.273 381.85 473.272 382.522Z" fill="#C0D8FF"/>
<path d="M276.799 433.459C276.35 433.926 275.959 434.446 275.633 435.007L275.135 434.753C275.108 434.633 275.047 434.524 274.959 434.438C274.871 434.353 274.76 434.294 274.64 434.27C274.519 434.246 274.395 434.257 274.281 434.303C274.167 434.348 274.068 434.425 273.997 434.525C273.926 434.625 273.885 434.743 273.88 434.866C273.874 434.989 273.904 435.11 273.966 435.216C274.028 435.322 274.12 435.407 274.229 435.463C274.339 435.518 274.462 435.54 274.584 435.527L274.785 435.474L275.262 435.718C274.992 436.305 274.799 436.925 274.69 437.563L275.474 437.711C275.721 436.316 276.387 435.029 277.383 434.021L276.799 433.459Z" fill="#F7FAFB"/>
<path d="M282.621 431.02H282.08L282.006 430.351C282.132 430.247 282.22 430.105 282.259 429.947C282.298 429.788 282.285 429.621 282.222 429.47C282.16 429.32 282.05 429.193 281.91 429.109C281.77 429.026 281.607 428.989 281.444 429.005C281.345 429.016 281.249 429.048 281.161 429.097C281.074 429.146 280.997 429.212 280.935 429.29C280.873 429.369 280.827 429.459 280.8 429.556C280.773 429.652 280.765 429.753 280.777 429.853C280.792 429.981 280.84 430.103 280.916 430.207C280.992 430.311 281.094 430.393 281.211 430.447L281.285 431.104C280.53 431.234 279.795 431.466 279.102 431.794L279.451 432.515C280.446 432.045 281.532 431.803 282.632 431.804C283.159 431.803 283.686 431.859 284.201 431.974L284.37 431.189C283.795 431.069 283.209 431.012 282.621 431.02Z" fill="#F7FAFB"/>
<path d="M289.617 433.756C289.701 433.746 289.782 433.721 289.856 433.68C289.93 433.639 289.994 433.584 290.047 433.518C290.099 433.452 290.138 433.376 290.16 433.295C290.183 433.214 290.189 433.129 290.179 433.045C290.168 432.876 290.09 432.719 289.963 432.608C289.836 432.496 289.669 432.44 289.501 432.451C289.332 432.462 289.175 432.54 289.063 432.668C288.952 432.795 288.896 432.961 288.907 433.13L288.462 433.512C288.012 433.052 287.51 432.646 286.967 432.303L286.543 432.992C287.733 433.734 288.678 434.811 289.257 436.089L289.988 435.76C289.727 435.172 289.392 434.62 288.992 434.116L289.416 433.745C289.482 433.759 289.55 433.763 289.617 433.756Z" fill="#F7FAFB"/>
<path d="M281.995 441.847C281.593 441.847 281.179 441.847 280.776 441.847C279.896 441.847 279.018 441.784 278.147 441.657C277.691 441.582 277.242 441.476 276.801 441.338C277.44 442.465 278.397 443.377 279.552 443.96C280.708 444.543 282.01 444.771 283.295 444.616C284.58 444.461 285.79 443.929 286.774 443.087C287.758 442.245 288.47 441.131 288.823 439.885C288.009 440.393 287.132 440.793 286.215 441.073C284.845 441.502 283.428 441.762 281.995 441.847Z" fill="#F7FAFB"/>
<path d="M282.617 432.631C281.78 432.62 280.949 432.774 280.172 433.085C279.394 433.396 278.686 433.857 278.087 434.443C277.488 435.028 277.011 435.726 276.682 436.496C276.354 437.266 276.18 438.094 276.172 438.931C276.173 439.381 276.223 439.829 276.32 440.267C277.031 440.787 279.183 441.211 281.992 441.041C284.529 441.037 287.001 440.24 289.063 438.761C289.056 438.552 289.038 438.343 289.01 438.136C288.8 436.595 288.034 435.185 286.857 434.171C285.679 433.157 284.171 432.61 282.617 432.631ZM280.328 439.536C279.94 439.536 279.56 439.42 279.238 439.205C278.915 438.989 278.664 438.683 278.516 438.324C278.367 437.966 278.328 437.571 278.404 437.191C278.48 436.81 278.666 436.461 278.941 436.186C279.215 435.912 279.565 435.725 279.945 435.649C280.325 435.574 280.72 435.612 281.078 435.761C281.436 435.909 281.743 436.161 281.958 436.484C282.174 436.806 282.289 437.186 282.289 437.574C282.289 438.094 282.082 438.593 281.714 438.961C281.347 439.329 280.848 439.536 280.328 439.536ZM285.353 438.57C285.067 438.57 284.789 438.486 284.552 438.327C284.314 438.169 284.13 437.944 284.021 437.68C283.911 437.417 283.883 437.127 283.938 436.847C283.994 436.567 284.131 436.31 284.333 436.108C284.535 435.907 284.792 435.769 285.071 435.714C285.351 435.658 285.641 435.686 285.904 435.796C286.168 435.905 286.393 436.09 286.551 436.327C286.71 436.564 286.794 436.843 286.794 437.128C286.794 437.511 286.642 437.878 286.372 438.148C286.102 438.418 285.735 438.57 285.353 438.57Z" fill="#F7FAFB"/>
<path d="M299.592 434.615C299.131 434.406 298.624 434.319 298.119 434.36C297.987 434.362 297.858 434.391 297.739 434.447C297.62 434.504 297.514 434.585 297.43 434.686C297.345 434.786 297.283 434.904 297.249 435.031C297.214 435.158 297.207 435.291 297.228 435.421V436.343H299.592V438.168H297.228V443.947H295.182V438.168H293.762V436.343H295.182V435.4C295.132 435.02 295.166 434.633 295.282 434.268C295.398 433.902 295.592 433.567 295.853 433.285C296.113 433.004 296.432 432.783 296.787 432.639C297.142 432.495 297.524 432.431 297.907 432.451C298.485 432.442 299.06 432.554 299.592 432.78V434.615Z" fill="#F7FAFB"/>
<path d="M304.576 438.146C304.39 438.113 304.202 438.096 304.014 438.093C303.791 438.081 303.569 438.117 303.361 438.2C303.154 438.283 302.968 438.411 302.815 438.573C302.663 438.736 302.548 438.93 302.478 439.142C302.409 439.354 302.387 439.579 302.413 439.801V443.947H300.367V436.343H302.35V437.181C302.58 436.835 302.897 436.555 303.269 436.369C303.641 436.183 304.055 436.097 304.47 436.121C304.886 436.112 305.294 436.235 305.636 436.471L304.576 438.146Z" fill="#F7FAFB"/>
<path d="M312.737 440.119C312.749 440.348 312.749 440.578 312.737 440.808H307.341C307.409 441.269 307.649 441.687 308.013 441.978C308.377 442.27 308.837 442.412 309.302 442.378C310.005 442.361 310.681 442.107 311.221 441.657L312.419 442.972C311.531 443.761 310.372 444.175 309.185 444.128C308.158 444.09 307.184 443.659 306.465 442.923C305.747 442.187 305.338 441.203 305.325 440.175C305.311 439.146 305.693 438.151 306.392 437.397C307.091 436.642 308.053 436.185 309.079 436.121C309.589 436.122 310.092 436.228 310.558 436.434C311.024 436.64 311.442 436.94 311.786 437.316C312.13 437.692 312.392 438.135 312.555 438.618C312.719 439.1 312.781 439.611 312.737 440.119ZM307.309 439.408H310.617C310.57 438.994 310.372 438.611 310.061 438.333C309.75 438.055 309.348 437.901 308.931 437.901C308.514 437.901 308.111 438.055 307.801 438.333C307.49 438.611 307.292 438.994 307.245 439.408H307.309Z" fill="#F7FAFB"/>
<path d="M320.814 440.119C320.827 440.349 320.827 440.579 320.814 440.808H315.387C315.45 441.27 315.687 441.689 316.05 441.981C316.413 442.273 316.873 442.415 317.337 442.378C318.04 442.362 318.716 442.107 319.256 441.657L320.465 442.972C319.572 443.76 318.41 444.174 317.221 444.128C316.193 444.09 315.219 443.659 314.5 442.923C313.782 442.187 313.373 441.203 313.36 440.175C313.346 439.146 313.728 438.152 314.427 437.397C315.126 436.642 316.088 436.185 317.115 436.121C317.627 436.116 318.136 436.218 318.606 436.422C319.077 436.625 319.501 436.924 319.849 437.301C320.197 437.677 320.463 438.122 320.63 438.608C320.796 439.093 320.859 439.608 320.814 440.119ZM315.387 439.408H318.758C318.728 438.991 318.54 438.601 318.233 438.317C317.926 438.033 317.522 437.878 317.104 437.881C316.673 437.866 316.253 438.02 315.933 438.308C315.612 438.597 315.416 438.999 315.387 439.43V439.408Z" fill="#F7FAFB"/>
<path d="M329.701 440.119C329.734 440.626 329.664 441.135 329.495 441.615C329.326 442.095 329.062 442.535 328.718 442.91C328.374 443.284 327.958 443.585 327.495 443.795C327.031 444.004 326.531 444.117 326.022 444.128C325.599 444.143 325.178 444.062 324.791 443.891C324.404 443.72 324.06 443.464 323.785 443.141V447.065H321.75V436.343H323.754V437.181C324.021 436.838 324.366 436.563 324.761 436.378C325.155 436.194 325.587 436.106 326.022 436.121C326.53 436.131 327.03 436.244 327.492 436.453C327.955 436.662 328.37 436.962 328.714 437.335C329.057 437.709 329.322 438.148 329.492 438.626C329.661 439.105 329.732 439.612 329.701 440.119ZM323.69 440.119C323.721 440.499 323.862 440.862 324.096 441.163C324.33 441.465 324.646 441.691 325.007 441.815C325.367 441.939 325.756 441.955 326.126 441.862C326.496 441.768 326.83 441.569 327.088 441.288C327.346 441.008 327.517 440.658 327.579 440.281C327.642 439.905 327.593 439.519 327.44 439.17C327.286 438.82 327.034 438.524 326.715 438.316C326.395 438.107 326.022 437.997 325.641 437.998C325.366 437.991 325.093 438.042 324.839 438.148C324.586 438.254 324.358 438.412 324.169 438.612C323.981 438.812 323.838 439.05 323.748 439.31C323.658 439.569 323.624 439.845 323.648 440.119H323.69Z" fill="#F7FAFB"/>
<path d="M332.956 433.851C332.926 434.178 332.776 434.482 332.533 434.704C332.291 434.925 331.975 435.048 331.647 435.048C331.318 435.048 331.002 434.925 330.76 434.704C330.517 434.482 330.367 434.178 330.337 433.851C330.321 433.669 330.343 433.486 330.401 433.313C330.459 433.14 330.553 432.981 330.676 432.846C330.799 432.711 330.949 432.604 331.116 432.53C331.283 432.456 331.464 432.418 331.647 432.418C331.829 432.418 332.01 432.456 332.177 432.53C332.344 432.604 332.494 432.711 332.617 432.846C332.74 432.981 332.834 433.14 332.892 433.313C332.951 433.486 332.972 433.669 332.956 433.851ZM332.68 443.947H330.634V436.343H332.68V443.947Z" fill="#F7FAFB"/>
<path d="M336.061 439.058L338.923 436.354H341.436L337.747 439.939L341.457 443.958H338.945L336.061 440.883V443.958H334.047V432.695H336.061V439.058Z" fill="#F7FAFB"/>
<path d="M196.558 443.884V442.76C196.266 443.159 195.885 443.485 195.445 443.712C195.005 443.938 194.519 444.059 194.024 444.064C192.073 444.064 190.695 442.579 190.695 440.14C190.695 437.701 192.052 436.195 194.024 436.195C194.52 436.202 195.007 436.324 195.447 436.552C195.887 436.781 196.267 437.109 196.558 437.51V433.522H197.724V443.884H196.558ZM196.558 441.848V438.443C196.305 438.079 195.97 437.779 195.579 437.569C195.189 437.359 194.754 437.244 194.31 437.234C192.805 437.234 191.904 438.475 191.904 440.14C191.904 441.805 192.805 443.025 194.31 443.025C194.751 443.02 195.185 442.911 195.576 442.707C195.966 442.502 196.303 442.208 196.558 441.848Z" fill="#F7FAFB"/>
<path d="M199.229 440.119C199.207 439.616 199.285 439.114 199.46 438.642C199.635 438.171 199.903 437.739 200.248 437.373C200.594 437.007 201.009 436.714 201.469 436.511C201.93 436.309 202.426 436.201 202.929 436.195C205.198 436.195 206.534 437.966 206.534 440.214V440.511H200.459C200.466 440.859 200.541 441.203 200.681 441.522C200.821 441.841 201.022 442.129 201.273 442.371C201.524 442.612 201.82 442.801 202.144 442.928C202.468 443.055 202.814 443.117 203.162 443.109C204.028 443.107 204.858 442.764 205.474 442.155L206.035 442.919C205.641 443.299 205.173 443.596 204.662 443.793C204.15 443.99 203.604 444.082 203.056 444.064C202.54 444.08 202.025 443.987 201.546 443.793C201.067 443.599 200.633 443.307 200.273 442.936C199.913 442.564 199.634 442.122 199.455 441.637C199.275 441.152 199.198 440.635 199.229 440.119ZM202.908 437.16C202.255 437.171 201.632 437.439 201.174 437.905C200.716 438.371 200.459 438.998 200.459 439.652H205.378C205.387 439.324 205.329 438.998 205.208 438.693C205.087 438.388 204.906 438.111 204.675 437.878C204.444 437.645 204.169 437.462 203.865 437.338C203.561 437.215 203.236 437.154 202.908 437.16Z" fill="#F7FAFB"/>
<path d="M207.371 442.887L207.975 442.049C208.294 442.384 208.677 442.651 209.101 442.834C209.526 443.016 209.983 443.11 210.445 443.11C211.59 443.11 212.216 442.569 212.216 441.816C212.216 440.002 207.573 441.126 207.573 438.337C207.573 437.171 208.58 436.216 210.361 436.216C210.873 436.197 211.384 436.28 211.863 436.463C212.342 436.645 212.779 436.922 213.149 437.277L212.597 438.083C212.314 437.774 211.968 437.53 211.582 437.367C211.196 437.204 210.779 437.126 210.361 437.139C209.3 437.139 208.707 437.648 208.707 438.316C208.707 439.97 213.35 438.878 213.35 441.794C213.35 443.057 212.29 444.064 210.392 444.064C209.834 444.091 209.277 444 208.756 443.798C208.236 443.595 207.764 443.284 207.371 442.887Z" fill="#F7FAFB"/>
<path d="M214.652 434.53C214.651 434.427 214.67 434.325 214.708 434.229C214.746 434.133 214.803 434.046 214.875 433.972C214.947 433.898 215.032 433.839 215.127 433.798C215.222 433.758 215.323 433.736 215.426 433.735C215.636 433.737 215.837 433.822 215.985 433.971C216.134 434.119 216.219 434.32 216.221 434.53C216.22 434.633 216.198 434.735 216.158 434.83C216.117 434.924 216.058 435.01 215.984 435.082C215.91 435.154 215.823 435.21 215.727 435.249C215.632 435.287 215.529 435.306 215.426 435.304C215.221 435.304 215.024 435.223 214.879 435.077C214.734 434.932 214.652 434.735 214.652 434.53ZM214.854 443.884V436.375H216.02V443.884H214.854Z" fill="#F7FAFB"/>
<path d="M217.941 445.803L218.534 444.934C218.824 445.296 219.197 445.582 219.622 445.767C220.047 445.952 220.511 446.03 220.973 445.994C221.285 446.038 221.603 446.011 221.904 445.915C222.205 445.82 222.481 445.659 222.711 445.443C222.942 445.228 223.121 444.964 223.237 444.67C223.353 444.376 223.401 444.061 223.379 443.746V442.685C223.093 443.088 222.717 443.418 222.281 443.65C221.845 443.882 221.36 444.009 220.867 444.022C218.905 444.022 217.527 442.558 217.527 440.129C217.527 437.701 218.895 436.237 220.867 436.237C221.36 436.242 221.844 436.364 222.281 436.592C222.718 436.821 223.094 437.15 223.379 437.552V436.418H224.545V443.703C224.545 446.196 222.807 446.97 220.973 446.97C220.413 447.008 219.852 446.923 219.328 446.721C218.804 446.52 218.331 446.207 217.941 445.803ZM223.379 441.72V438.443C223.129 438.078 222.796 437.778 222.407 437.568C222.018 437.357 221.584 437.243 221.142 437.234C219.637 437.234 218.736 438.433 218.736 440.087C218.736 441.741 219.637 442.95 221.142 442.95C221.587 442.94 222.022 442.823 222.411 442.609C222.8 442.395 223.132 442.09 223.379 441.72Z" fill="#F7FAFB"/>
<path d="M231.541 443.884V438.974C231.541 437.648 230.873 437.234 229.866 437.234C229.433 437.25 229.009 437.363 228.626 437.565C228.242 437.767 227.909 438.053 227.651 438.401V443.884H226.484V436.375H227.651V437.436C227.983 437.05 228.393 436.738 228.853 436.519C229.313 436.3 229.813 436.179 230.322 436.163C230.649 436.118 230.981 436.15 231.293 436.256C231.605 436.362 231.888 436.54 232.12 436.775C232.351 437.009 232.525 437.295 232.627 437.608C232.729 437.922 232.757 438.255 232.707 438.581V443.884H231.541Z" fill="#F7FAFB"/>
<path d="M234.214 440.119C234.191 439.616 234.27 439.114 234.445 438.642C234.62 438.171 234.888 437.739 235.233 437.373C235.578 437.007 235.993 436.714 236.454 436.511C236.914 436.309 237.411 436.201 237.914 436.195C240.182 436.195 241.518 437.966 241.518 440.214V440.511H235.444C235.45 440.859 235.526 441.203 235.665 441.522C235.805 441.841 236.006 442.129 236.257 442.371C236.508 442.612 236.804 442.801 237.129 442.928C237.453 443.055 237.799 443.117 238.147 443.11C239.013 443.107 239.843 442.764 240.458 442.155L241.02 442.919C240.626 443.3 240.159 443.598 239.647 443.795C239.135 443.991 238.589 444.083 238.041 444.064C237.524 444.08 237.01 443.987 236.53 443.793C236.051 443.599 235.618 443.307 235.258 442.936C234.898 442.564 234.619 442.122 234.439 441.637C234.259 441.152 234.183 440.635 234.214 440.119ZM237.892 437.16C237.24 437.174 236.619 437.442 236.161 437.908C235.704 438.373 235.446 438.999 235.444 439.652H240.363C240.373 439.324 240.316 438.997 240.196 438.691C240.075 438.386 239.894 438.108 239.663 437.875C239.432 437.642 239.156 437.458 238.851 437.335C238.547 437.212 238.221 437.153 237.892 437.16Z" fill="#F7FAFB"/>
<path d="M248.439 443.884V442.76C248.148 443.159 247.767 443.485 247.327 443.712C246.887 443.938 246.4 444.059 245.906 444.064C243.955 444.064 242.566 442.579 242.566 440.14C242.566 437.701 243.934 436.195 245.906 436.195C246.401 436.202 246.888 436.324 247.328 436.552C247.768 436.781 248.149 437.109 248.439 437.51V433.522H249.606V443.884H248.439ZM248.439 441.848V438.443C248.185 438.08 247.849 437.782 247.459 437.572C247.069 437.362 246.635 437.247 246.192 437.234C244.687 437.234 243.786 438.475 243.786 440.14C243.786 441.805 244.687 443.025 246.192 443.025C246.632 443.018 247.065 442.908 247.456 442.703C247.846 442.499 248.183 442.206 248.439 441.848Z" fill="#F7FAFB"/>
<path d="M255.16 443.884V433.522H256.326V437.51C256.617 437.109 256.997 436.781 257.437 436.552C257.877 436.324 258.364 436.202 258.86 436.195C260.811 436.195 262.199 437.743 262.199 440.14C262.199 442.537 260.811 444.064 258.86 444.064C258.365 444.059 257.879 443.938 257.439 443.712C256.999 443.485 256.618 443.159 256.326 442.76V443.884H255.16ZM258.563 443.025C260.09 443.025 260.991 441.795 260.991 440.14C260.991 438.486 260.09 437.234 258.563 437.234C258.122 437.246 257.689 437.361 257.3 437.571C256.912 437.781 256.578 438.08 256.326 438.443V441.848C256.579 442.207 256.914 442.501 257.303 442.705C257.692 442.91 258.124 443.02 258.563 443.025Z" fill="#F7FAFB"/>
<path d="M263.472 445.761C263.675 445.841 263.89 445.884 264.108 445.888C264.358 445.908 264.606 445.84 264.81 445.694C265.014 445.549 265.159 445.335 265.221 445.093L265.719 443.958L262.539 436.375H263.801L266.302 442.526L268.783 436.375H270.055L266.345 445.422C266.192 445.88 265.894 446.277 265.496 446.552C265.099 446.828 264.623 446.967 264.14 446.949C263.851 446.941 263.563 446.906 263.281 446.843L263.472 445.761Z" fill="#F7FAFB"/>
</svg>
